<?xml version="1.0" encoding="UTF-8" standalone="no"?>
<!-- Created with Inkscape (http://www.inkscape.org/) -->

<svg
   xmlns:dc="http://purl.org/dc/elements/1.1/"
   xmlns:cc="http://creativecommons.org/ns#"
   xmlns:rdf="http://www.w3.org/1999/02/22-rdf-syntax-ns#"
   xmlns:svg="http://www.w3.org/2000/svg"
   xmlns="http://www.w3.org/2000/svg"
   xmlns:sodipodi="http://sodipodi.sourceforge.net/DTD/sodipodi-0.dtd"
   xmlns:inkscape="http://www.inkscape.org/namespaces/inkscape"
   width="900"
   height="900"
   id="svg4017"
   version="1.1"
   inkscape:version="0.48.4 r9939"
   sodipodi:docname="dog2.svg">
  <defs
     id="defs4019" />
  <sodipodi:namedview
     id="base"
     pagecolor="#ffffff"
     bordercolor="#666666"
     borderopacity="1.0"
     inkscape:pageopacity="0.0"
     inkscape:pageshadow="2"
     inkscape:zoom="0.90509668"
     inkscape:cx="456.88751"
     inkscape:cy="466.52353"
     inkscape:document-units="px"
     inkscape:current-layer="layer1"
     showgrid="false"
     units="pc"
     inkscape:window-width="1855"
     inkscape:window-height="1056"
     inkscape:window-x="65"
     inkscape:window-y="24"
     inkscape:window-maximized="1">
    <inkscape:grid
       empspacing="5"
       visible="true"
       enabled="true"
       snapvisiblegridlinesonly="true"
       type="xygrid"
       id="grid4092" />
  </sodipodi:namedview>
  <metadata
     id="metadata4022">
    <rdf:RDF>
      <cc:Work
         rdf:about="">
        <dc:format>image/svg+xml</dc:format>
        <dc:type
           rdf:resource="http://purl.org/dc/dcmitype/StillImage" />
        <dc:title></dc:title>
      </cc:Work>
    </rdf:RDF>
  </metadata>
  <g
     inkscape:label="Layer 1"
     inkscape:groupmode="layer"
     id="layer1"
     transform="translate(0,-152.36162)">
    <path
       style="fill:#ffffff;fill-opacity:1;fill-rule:nonzero;stroke:#000000;stroke-width:27.14460373000000004;stroke-linecap:round;stroke-linejoin:round;stroke-miterlimit:4;stroke-opacity:1;stroke-dashoffset:0;marker:none;visibility:visible;display:inline;overflow:visible;enable-background:accumulate"
       d="m 720.125,232.45537 c 33.29167,33.30208 66.58333,66.60417 99.875,99.90625 -33.30313,-33.29063 -66.58233,-66.60517 -99.875,-99.90625 z M 97.15625,192.36162 c 14.61232,126.48505 13.93883,255.02237 40,380 87.42988,116.52154 179.87727,235.31472 304.46616,314.29156 59.18165,37.15381 139.28857,60.59258 203.11744,20.87818 76.35973,-49.126 107.3839,-141.73067 127.05093,-225.88546 15.05684,-77.979 26.1915,-159.8402 9.62221,-238.44458 -3.08963,-36.39606 36.02613,-70.87549 38.58701,-110.8397 -40,13.33333 -80,26.66667 -120,40 6.67708,-46.61458 13.35417,-93.22917 20.03125,-139.84375 -45.08295,27.66012 -87.66638,60.16791 -122.875,99.84375 -33.73107,-23.92838 -72.87712,-41.94487 -115.12895,-39.74357 -49.8507,-1.50413 -103.43368,-1.87885 -146.00155,28.32693 -33.84903,26.37488 -55.44443,-39.51862 -88.04919,-51.06383 -46.2594,-32.86873 -99.1391,-54.82034 -150.82031,-77.51953 z"
       id="path3478-6"
       inkscape:connector-curvature="0" />
    <path
       transform="matrix(13.228915,5.951989,-5.951989,13.228915,-301.98595,-532.01375)"
       d="m 76,48 a 4,4 0 1 1 -8,0 4,4 0 1 1 8,0 z"
       sodipodi:ry="4"
       sodipodi:rx="4"
       sodipodi:cy="48"
       sodipodi:cx="72"
       id="path3183"
       style="fill:#000000;fill-opacity:1;fill-rule:nonzero;stroke:none;stroke-width:3;marker:none;visibility:visible;display:inline;overflow:visible;enable-background:accumulate"
       sodipodi:type="arc" />
    <path
       sodipodi:type="arc"
       style="fill:#ffffff;fill-opacity:1;fill-rule:nonzero;stroke:none;stroke-width:3;marker:none;visibility:visible;display:inline;overflow:visible;enable-background:accumulate"
       id="path3185"
       sodipodi:cx="72"
       sodipodi:cy="48"
       sodipodi:rx="4"
       sodipodi:ry="4"
       d="m 76,48 a 4,4 0 1 1 -8,0 4,4 0 1 1 8,0 z"
       transform="matrix(-6.4985697,-6.0365879,-4.7704481,7.5050166,1067.0057,586.70411)"
       inkscape:transform-center-x="-32.24839" />
    <path
       sodipodi:type="arc"
       style="fill:#000000;fill-opacity:1;fill-rule:nonzero;stroke:none;stroke-width:3;marker:none;visibility:visible;display:inline;overflow:visible;enable-background:accumulate"
       id="path3195"
       sodipodi:cx="72"
       sodipodi:cy="48"
       sodipodi:rx="4"
       sodipodi:ry="4"
       d="m 76,48 a 4,4 0 1 1 -8,0 4,4 0 1 1 8,0 z"
       transform="matrix(13.228915,5.951989,-5.951989,13.228915,-66.641194,-558.21457)" />
    <path
       sodipodi:nodetypes="ccc"
       id="path3588"
       d="M 627.20544,807.85136 C 591.32421,802.66 555.44298,802.94345 519.56175,806.25414 510.3865,866.02832 544.52755,883.87477 600,872.36162"
       style="fill:none;stroke:#000000;stroke-width:19.02340698;stroke-linecap:round;stroke-linejoin:round;stroke-miterlimit:4;stroke-opacity:1;stroke-dasharray:none"
       inkscape:connector-curvature="0" />
    <path
       sodipodi:type="arc"
       style="fill:#ffffff;fill-opacity:1;fill-rule:nonzero;stroke:none;stroke-width:3;marker:none;visibility:visible;display:inline;overflow:visible;enable-background:accumulate"
       id="path3185-99"
       sodipodi:cx="72"
       sodipodi:cy="48"
       sodipodi:rx="4"
       sodipodi:ry="4"
       d="m 76,48 a 4,4 0 1 1 -8,0 4,4 0 1 1 8,0 z"
       transform="matrix(-6.4985697,-6.0365879,-4.7704481,7.5050166,1302.7199,562.4184)"
       inkscape:transform-center-x="-32.24839" />
    <path
       style="fill:#000000;fill-opacity:1;stroke:#000000;stroke-width:14.28571415;stroke-linecap:round;stroke-linejoin:round;stroke-miterlimit:4;stroke-opacity:1;stroke-dasharray:none"
       d="m 574.09734,879.7345 c -26.90776,-8.51307 -47.62271,-35.44533 -44.81167,-64.19224 29.86938,-1.65094 60.02384,-1.96891 89.71125,1.76871 11.36474,28.16078 -12.5065,70.75578 -44.89958,62.42353 z"
       id="path4202"
       inkscape:connector-curvature="0" />
    <path
       sodipodi:type="arc"
       style="fill:#000000;fill-opacity:1;stroke:#000000;stroke-width:10;stroke-linecap:round;stroke-linejoin:round;stroke-miterlimit:4;stroke-opacity:1;stroke-dasharray:none"
       id="path4223"
       sodipodi:cx="-170"
       sodipodi:cy="470"
       sodipodi:rx="10"
       sodipodi:ry="10"
       d="m -160,470 a 10,10 0 1 1 -20,0 10,10 0 1 1 20,0 z"
       transform="matrix(0.36957317,0,0,0.44100174,512.11315,552.23366)" />
    <path
       sodipodi:type="arc"
       style="fill:#000000;fill-opacity:1;stroke:#000000;stroke-width:10;stroke-linecap:round;stroke-linejoin:round;stroke-miterlimit:4;stroke-opacity:1;stroke-dasharray:none"
       id="path4223-4"
       sodipodi:cx="-170"
       sodipodi:cy="470"
       sodipodi:rx="10"
       sodipodi:ry="10"
       d="m -160,470 a 10,10 0 1 1 -20,0 10,10 0 1 1 20,0 z"
       transform="matrix(0.36957317,0,0,0.44100174,479.25601,549.37651)" />
    <path
       sodipodi:type="arc"
       style="fill:#000000;fill-opacity:1;stroke:#000000;stroke-width:10;stroke-linecap:round;stroke-linejoin:round;stroke-miterlimit:4;stroke-opacity:1;stroke-dasharray:none"
       id="path4223-0"
       sodipodi:cx="-170"
       sodipodi:cy="470"
       sodipodi:rx="10"
       sodipodi:ry="10"
       d="m -160,470 a 10,10 0 1 1 -20,0 10,10 0 1 1 20,0 z"
       transform="matrix(0.36957317,0,0,0.44100174,493.54172,568.51937)" />
    <path
       sodipodi:type="arc"
       style="fill:#000000;fill-opacity:1;stroke:#000000;stroke-width:10;stroke-linecap:round;stroke-linejoin:round;stroke-miterlimit:4;stroke-opacity:1;stroke-dasharray:none"
       id="path4223-1"
       sodipodi:cx="-170"
       sodipodi:cy="470"
       sodipodi:rx="10"
       sodipodi:ry="10"
       d="m -160,470 a 10,10 0 1 1 -20,0 10,10 0 1 1 20,0 z"
       transform="matrix(0.36957317,0,0,0.44100174,743.5417,522.23366)" />
    <path
       sodipodi:type="arc"
       style="fill:#000000;fill-opacity:1;stroke:#000000;stroke-width:10;stroke-linecap:round;stroke-linejoin:round;stroke-miterlimit:4;stroke-opacity:1;stroke-dasharray:none"
       id="path4223-2"
       sodipodi:cx="-170"
       sodipodi:cy="470"
       sodipodi:rx="10"
       sodipodi:ry="10"
       d="m -160,470 a 10,10 0 1 1 -20,0 10,10 0 1 1 20,0 z"
       transform="matrix(0.36957317,0,0,0.44100174,716.39886,535.0908)" />
    <path
       sodipodi:type="arc"
       style="fill:#000000;fill-opacity:1;stroke:#000000;stroke-width:10;stroke-linecap:round;stroke-linejoin:round;stroke-miterlimit:4;stroke-opacity:1;stroke-dasharray:none"
       id="path4223-16"
       sodipodi:cx="-170"
       sodipodi:cy="470"
       sodipodi:rx="10"
       sodipodi:ry="10"
       d="m -160,470 a 10,10 0 1 1 -20,0 10,10 0 1 1 20,0 z"
       transform="matrix(0.36957317,0,0,0.44100174,720.68458,505.0908)" />
    <path
       sodipodi:type="arc"
       style="fill:#000000;fill-opacity:1;stroke:#000000;stroke-width:10;stroke-linecap:round;stroke-linejoin:round;stroke-miterlimit:4;stroke-opacity:1;stroke-dasharray:none"
       id="path4223-5"
       sodipodi:cx="-170"
       sodipodi:cy="470"
       sodipodi:rx="10"
       sodipodi:ry="10"
       d="m -160,470 a 10,10 0 1 1 -20,0 10,10 0 1 1 20,0 z"
       transform="matrix(0.36957317,0,0,0.44100174,757.82743,490.80508)" />
    <path
       sodipodi:type="arc"
       style="fill:#000000;fill-opacity:1;stroke:#000000;stroke-width:10;stroke-linecap:round;stroke-linejoin:round;stroke-miterlimit:4;stroke-opacity:1;stroke-dasharray:none"
       id="path4223-55"
       sodipodi:cx="-170"
       sodipodi:cy="470"
       sodipodi:rx="10"
       sodipodi:ry="10"
       d="m -160,470 a 10,10 0 1 1 -20,0 10,10 0 1 1 20,0 z"
       transform="matrix(0.36957317,0,0,0.44100174,449.25601,537.37651)" />
    <path
       sodipodi:type="arc"
       style="fill:#ffffff;fill-opacity:1;stroke:#000000;stroke-width:10;stroke-linecap:round;stroke-linejoin:round;stroke-miterlimit:4;stroke-opacity:1;stroke-dasharray:none"
       id="path4223-6"
       sodipodi:cx="-170"
       sodipodi:cy="470"
       sodipodi:rx="10"
       sodipodi:ry="10"
       d="m -160,470 a 10,10 0 1 1 -20,0 10,10 0 1 1 20,0 z"
       transform="matrix(1.2473095,0,0,1.4883809,584.89975,-164.76668)" />
    <path
       sodipodi:type="arc"
       style="fill:#ffffff;fill-opacity:1;stroke:#000000;stroke-width:10;stroke-linecap:round;stroke-linejoin:round;stroke-miterlimit:4;stroke-opacity:1;stroke-dasharray:none"
       id="path4223-6-0"
       sodipodi:cx="-170"
       sodipodi:cy="470"
       sodipodi:rx="10"
       sodipodi:ry="10"
       d="m -160,470 a 10,10 0 1 1 -20,0 10,10 0 1 1 20,0 z"
       transform="matrix(1.2473095,0,0,1.4883809,817.47118,-187.62383)" />
    <path
       style="fill:#000000;fill-opacity:1;stroke:#000000;stroke-width:14.28571415;stroke-linecap:round;stroke-linejoin:round;stroke-miterlimit:4;stroke-opacity:1;stroke-dasharray:none"
       d="m 718.186,194.09261 c 0.41576,-2.64379 3.18764,-22.16404 6.15974,-43.37832 2.9721,-21.21429 5.64493,-38.86335 5.93963,-39.22013 0.29471,-0.35678 14.65756,13.4621 31.91746,30.70862 l 31.38163,31.35731 -35.36366,11.80356 c -19.45001,6.49195 -36.58475,12.19332 -38.0772,12.66971 -2.38766,0.76213 -2.62275,0.28888 -1.9576,-3.94075 z"
       id="path4331"
       inkscape:connector-curvature="0"
       transform="translate(0,152.36162)" />
    <path
       sodipodi:type="star"
       style="fill:#000000;fill-opacity:1;stroke:#000000;stroke-width:10;stroke-linecap:round;stroke-linejoin:round;stroke-miterlimit:4;stroke-opacity:1;stroke-dasharray:none"
       id="path4333"
       sodipodi:sides="3"
       sodipodi:cx="140"
       sodipodi:cy="220"
       sodipodi:r1="72.111023"
       sodipodi:r2="36.055511"
       sodipodi:arg1="-2.1587989"
       sodipodi:arg2="-1.1116014"
       inkscape:flatsided="false"
       inkscape:rounded="0"
       inkscape:randomized="0"
       d="m 100,160 55.98076,27.67949 55.98076,27.6795 L 160,250 l -51.96153,34.64101 -4.01923,-62.3205 z"
       transform="matrix(0.99393173,0.10999866,-0.10999866,0.99393173,80.935759,101.96681)"
       inkscape:transform-center-x="11.820541"
       inkscape:transform-center-y="24.875716" />
    <path
       style="fill:#ffffff;fill-opacity:1;stroke:#000000;stroke-width:14.28571415000000044;stroke-linecap:round;stroke-linejoin:round;stroke-miterlimit:4;stroke-opacity:1;stroke-dasharray:none"
       d="M 508.57143,888.54991 C 460.54771,886.52027 417.38747,861.51747 385.80119,826.48924 306.47858,758.40797 214.15379,698.08302 164.16277,603.24554 132.23293,525.77964 135.41193,440.24528 125.58304,358.38436 c -3.68989,-47.72947 -7.09322,-95.4949 -12.32432,-143.08753 69.04401,29.52426 139.20848,64.56126 187.96436,123.50982 43.81211,15.26854 75.66554,-39.26439 121.44872,-31.20325 49.16683,-0.72346 104.14253,-6.71928 145.33018,25.27424 41.15447,30.25406 65.26148,-22.04871 94.20105,-42.19424 14.57286,-11.06496 49.04363,-43.47456 36.77104,-3.99035 -11.83549,34.13213 -26.74639,122.56358 35.97397,90.46752 20.3041,-13.95108 79.62081,-31.09315 48.47417,11.01071 -30.58681,38.36697 -7.55679,80.52252 1.45048,121.06584 7.28867,66.8381 13.58627,137.40472 -13.89102,200.83552 -20.04064,44.0274 -40.24625,91.09539 -76.59799,124.17735 -28.44467,22.20192 -60.86619,43.57018 -95.84724,51.39148 19.51724,-25.85353 36.06493,-67.61062 -2.16784,-88.41428 -33.17488,-18.83596 -94.28525,-1.78106 -64.63739,43.62522 10.83446,31.51305 47.62137,45.84223 72.59871,35.11396 -14.88042,21.83565 -69.28714,6.40387 -95.75849,12.58354 z m -73.8226,-107.4314 c 8.85726,-28.74295 -25.76158,4.65475 0,0 z m 18.7509,-16.52765 c 8.86117,-30.29011 -25.39672,5.31729 0,0 z m -32.85714,-2.85714 c 8.86118,-30.29012 -25.39673,5.31727 0,0 z m -28.77788,-16.75076 c -11.58621,-25.11096 -11.89048,21.63064 0,0 z m 265.92073,2.46505 c 8.86121,-30.29012 -25.39673,5.31727 0,0 z m 27.14286,-12.85715 c 8.86118,-30.2901 -25.39671,5.31727 0,0 z m -22.85714,-17.14285 c 8.86119,-30.29012 -25.39673,5.31727 0,0 z m 37.14285,-14.28572 c 8.8612,-30.29011 -25.39673,5.31727 0,0 z M 389.62964,584.22858 c 47.59742,-18.31523 41.51956,-97.49888 -7.90573,-109.22722 -50.95814,-17.12176 -100.17898,51.03588 -63.15788,92.42867 16.41937,20.44627 47.24119,28.92415 71.06361,16.79855 z m 234.32567,-25.78836 c 47.30522,-17.57107 43.91007,-96.13003 -5.17511,-108.96406 -47.9652,-17.99991 -98.31408,42.55032 -69.20332,85.68965 14.69071,24.24282 48.44641,36.56928 74.37843,23.27441 z M 215.13989,373.23838 c 23.88452,-7.09393 80.81153,-38.31222 30.37434,-54.50327 -26.74193,-11.56227 -62.11335,-56.16042 -86.91959,-41.27557 -2.20156,39.05702 -13.42474,84.19413 -0.78799,120.12103 21.16569,5.1645 38.23489,-19.00235 57.33324,-24.34219 z"
       id="path4364"
       inkscape:connector-curvature="0" />
  </g>
</svg>
