<?xml version="1.0" encoding="UTF-8" standalone="no"?>
<!-- Created with Inkscape (http://www.inkscape.org/) -->

<svg
   xmlns:dc="http://purl.org/dc/elements/1.1/"
   xmlns:cc="http://creativecommons.org/ns#"
   xmlns:rdf="http://www.w3.org/1999/02/22-rdf-syntax-ns#"
   xmlns:svg="http://www.w3.org/2000/svg"
   xmlns="http://www.w3.org/2000/svg"
   xmlns:sodipodi="http://sodipodi.sourceforge.net/DTD/sodipodi-0.dtd"
   xmlns:inkscape="http://www.inkscape.org/namespaces/inkscape"
   width="625"
   height="625"
   id="svg3640"
   version="1.1"
   inkscape:version="0.48.4 r9939"
   sodipodi:docname="make-bed.svg">
  <defs
     id="defs3642">
    <filter
       id="filter13712-3-3"
       inkscape:label="Oil painting"
       inkscape:menu="Image effects"
       inkscape:menu-tooltip="Simulate oil painting style"
       color-interpolation-filters="sRGB">
      <feMorphology
         id="feMorphology13714-8-2"
         radius="2"
         in="SourceGraphic"
         result="result0" />
      <feTurbulence
         id="feTurbulence13716-8-5"
         numOctaves="1"
         baseFrequency="0.078"
         result="result91" />
      <feDisplacementMap
         id="feDisplacementMap13718-2-0"
         in2="result91"
         in="result0"
         scale="6.3"
         xChannelSelector="R"
         yChannelSelector="G" />
    </filter>
    <filter
       id="filter4217"
       inkscape:label="Oil painting"
       inkscape:menu="Image effects"
       inkscape:menu-tooltip="Simulate oil painting style"
       color-interpolation-filters="sRGB">
      <feMorphology
         id="feMorphology4219"
         radius="2"
         in="SourceGraphic"
         result="result0" />
      <feTurbulence
         id="feTurbulence4221"
         numOctaves="1"
         baseFrequency="0.078"
         result="result91" />
      <feDisplacementMap
         id="feDisplacementMap4223"
         in2="result91"
         in="result0"
         scale="6.3"
         xChannelSelector="R"
         yChannelSelector="G" />
    </filter>
  </defs>
  <sodipodi:namedview
     id="base"
     pagecolor="#ffffff"
     bordercolor="#666666"
     borderopacity="1.0"
     inkscape:pageopacity="0.0"
     inkscape:pageshadow="2"
     inkscape:zoom="1.4"
     inkscape:cx="245"
     inkscape:cy="298.98643"
     inkscape:document-units="px"
     inkscape:current-layer="g5049"
     showgrid="false"
     units="pt"
     inkscape:window-width="1871"
     inkscape:window-height="1056"
     inkscape:window-x="49"
     inkscape:window-y="24"
     inkscape:window-maximized="1" />
  <metadata
     id="metadata3645">
    <rdf:RDF>
      <cc:Work
         rdf:about="">
        <dc:format>image/svg+xml</dc:format>
        <dc:type
           rdf:resource="http://purl.org/dc/dcmitype/StillImage" />
        <dc:title></dc:title>
      </cc:Work>
    </rdf:RDF>
  </metadata>
  <g
     inkscape:label="Layer 1"
     inkscape:groupmode="layer"
     id="layer1"
     transform="translate(0,-427.3617)"
     style="display:inline">
    <g
       id="g5049"
       transform="translate(-6.4285714,-27.142857)">
      <path
         sodipodi:nodetypes="accccccaassccs"
         inkscape:connector-curvature="0"
         id="path13302"
         d="m 54.702884,586.5688 c -52.9696532,52.96965 0,224.73122 0,224.73122 l 19.264396,0 0,-125.03797 243.39355,0 0,125.03797 18.60218,0 c 0,0 52.96965,-171.76157 0,-224.73122 -66.29366,-66.29366 -214.9665,-66.29366 -281.260126,0 z m 19.264396,14.32789 c 78.69281,-3.60479 167.63862,-15.69235 243.39355,0 18.43163,3.81805 0,56.46876 0,56.46876 l -243.39355,0 c 0,0 -18.803207,-55.60741 0,-56.46876 z"
         style="fill:#00aa88;fill-opacity:1;stroke:#000000;stroke-width:5.77931881;stroke-miterlimit:4;stroke-opacity:1;stroke-dasharray:none;display:inline" />
      <path
         style="fill:#eeaaff;stroke:#000000;stroke-width:1.92643964px;stroke-linecap:butt;stroke-linejoin:miter;stroke-opacity:1;display:inline"
         d="M 71.903235,659.31719 317.5439,764.88758 561.28014,764.40108 317.5439,660.7767 z"
         id="path13312"
         inkscape:connector-curvature="0" />
      <path
         style="fill:#eeaaff;stroke:#000000;stroke-width:1.92643964px;stroke-linecap:butt;stroke-linejoin:miter;stroke-opacity:1;display:inline"
         d="m 71.903235,660.29019 0,62.47344 245.640665,112.17987 0,-69.56942 z"
         id="path13314"
         inkscape:connector-curvature="0"
         sodipodi:nodetypes="ccccc" />
      <path
         style="fill:none;stroke:#000000;stroke-width:5.77931881;stroke-linecap:butt;stroke-linejoin:miter;stroke-miterlimit:4;stroke-opacity:1;stroke-dasharray:none;display:inline"
         d="m 197.37855,598.50475 -2e-5,59.83945"
         id="path13320"
         inkscape:connector-curvature="0"
         sodipodi:nodetypes="cc" />
      <path
         inkscape:connector-curvature="0"
         style="fill:#ffffff;fill-opacity:1;stroke:#000000;stroke-width:0.28875348;stroke-linecap:round;stroke-linejoin:round;stroke-miterlimit:4;stroke-opacity:1;stroke-dasharray:none"
         d="m 227.80805,593.05086 c -51.46957,0.027 -104.65637,5.59149 -153.839381,7.84448 -18.803201,0.86135 0,56.46934 0,56.46934 l 243.392041,0 c 0,0 18.43164,-52.65129 0,-56.46934 -28.4081,-5.88463 -58.67093,-7.86064 -89.55266,-7.84448 z"
         id="rect20744" />
      <g
         transform="matrix(0.16217687,0,0,0.16217687,156.52903,543.41905)"
         style="display:inline"
         id="g14150">
        <g
           id="g3013"
           style="display:inline">
          <path
             style="fill:#aa4400;stroke:#000000;stroke-width:1px;stroke-linecap:butt;stroke-linejoin:miter;stroke-opacity:1"
             d="m 170.84066,323.61075 c -4.49133,-5.32492 -5.70189,-17.53649 -8.04017,-28.33536 l 8.10159,-30.91038 14.7112,-18.4759 11.15506,-13.85692 c 9.22976,-4.70813 10.93095,-10.49177 29.56145,-13.85693 l 14.78072,-0.92379 18.4759,5.54277 18.83151,10.23127 31.97721,-14.85025 c 9.48662,-7.69248 22.7841,-5.85782 35.10422,-6.46656 l 44.19912,15.3489 42.63761,24.37428 4.01469,-2.3199 c 4.65422,-3.09578 8.12222,-13.14332 19.54424,-13.53199 l 5.00926,0.20294 13.32904,6.31376 7.71681,9.11987 5.57744,10.78963 1.43785,14.4654 -1.40306,18.23974 -7.01528,11.22446 -8.41835,4.20917 2.80612,17.53821 5.61223,31.56879 0,13.32904 -3.50765,20.34433 -8.41834,21.74739 -1.40306,4.9107 c 4.25786,6.07991 3.63204,12.15983 3.50765,18.23974 l -7.01529,25.95656 2.57421,1.23491 10.75483,8.58649 11.92599,11.22445 14.03057,15.43363 18.23974,22.44892 16.83669,28.76267 11.92599,30.16573 2.10458,23.15044 -6.31376,14.7321 -2.80611,6.31376 56.82381,27.35961 19.6428,-9.8214 8.6223,-1.4866 11.72203,-2.02104 c 7.188,-0.93537 5.99743,-1.87075 21.74739,-2.80612 15.01396,0.84597 18.05911,0.83752 21.07802,2.77395 8.41352,2.09977 14.63458,6.28058 24.52133,9.85357 12.15782,6.27394 16.34826,9.27257 20.34433,14.7321 l 8.41834,12.62751 c 3.90805,12.08615 1.56794,21.67304 0,31.56879 l -7.71681,31.56878 -15.34479,27.39178 c -20.33712,17.42782 -33.17053,36.70003 -59.59776,43.37376 l -5.03171,2.89496 c -10.75461,0.93655 -15.48172,3.88127 -31.65762,1.7094 l -14.6356,-1.58839 c -32.20854,0.73061 -72.96408,-35.18572 -109.44612,-57.64635 l -21.74738,-12.62752 -8.41835,-7.01528 -12.62751,4.9107 -8.41834,5.61223 8.41834,7.71681 c 7.70754,4.47082 16.77954,9.1218 22.44891,15.43363 l 16.83669,10.61177 c 9.41308,3.49416 14.24635,9.6155 19.6428,17.44937 l 7.42188,8.41146 3.10105,3.51453 c 2.12575,4.97453 2.5359,10.52301 1.37089,17.69138 l -2.29804,14.53339 c -7.20936,12.58579 -0.68223,3.87315 -13.77279,33.59791 -1.34927,5.65534 -6.49213,15.91751 -9.85356,24.6745 -9.8214,14.26442 -13.25787,25.39199 -32.2673,43.59413 -5.5976,7.92218 -18.94855,27.54689 -32.55334,33.26089 l -6.03375,2.41771 c -2.54052,-0.29314 -6.51568,0.16697 -7.10614,-0.0421 -5.0128,-1.77495 -4.98857,3.73717 -29.37334,-4.16704 -7.47821,-5.13026 -12.74602,-3.62932 -22.44892,-15.43363 -5.19314,-2.43562 -8.78759,-5.01357 -16.23752,-11.96277 -2.74013,-1.15844 -5.49356,-7.6942 -12.62751,-18.70276 L 329.0169,912.758 318.49397,900.83201 c -15.76739,-13.21315 -28.35889,-31.5979 -42.09394,-51.92425 0.44318,0.46316 -12.40036,-18.81608 -22.44669,-32.9607 l -14.03057,-28.76267 -6.31376,-15.43363 -2.10458,-14.03057 -0.70153,-9.11988 -6.31376,8.41835 -6.31376,6.31375 -13.04535,12.76166 -16.41885,6.17962 -14.03057,2.80611 -15.43363,-2.10459 -11.92598,-4.20917 -8.00051,-5.25376 -4.62701,-6.67222 -7.01528,-12.62752 -6.31376,-14.03057 -2.80611,-14.7321 -1.40306,-14.03057 -0.50802,-12.4186 1.91108,-19.85171 0.34306,-11.71707 c 0.12091,-8.36051 -0.51672,-18.73074 3.01502,-21.25478 l 5.61223,-23.15044 3.9409,-14.99949 2.46305,-6.33006 10.22383,-23.64305 9.47834,-23.7772 9.39557,-19.68697 16.60494,-25.66218 25.66218,-24.15264 19.62402,-16.60494 c 2.25175,-4.02544 -3.63665,-8.05088 -7.5477,-12.07632 l -17.06584,-21.22868 c -7.71472,-9.52872 -8.77437,-19.05743 -10.10588,-28.58615 -4.5669,-10.68273 -5.88191,-19.07948 -3.97259,-27.17172 l 2.46305,-12.4594 4.4335,-13.66368 -1.97045,-13.18837 c -5.62221,2.70615 -15.1853,-10.75137 -20.3149,-16.1851 z"
             id="path2999"
             inkscape:connector-curvature="0"
             sodipodi:nodetypes="cccccccccccccccccccccccccccccccccccccccccccccccccccccccccccccccccccccccccccscccccccccccccccccccccccccccccccccccccccccccccc" />
        </g>
        <path
           sodipodi:nodetypes="cccccccccccccccccccccccccc"
           inkscape:connector-curvature="0"
           id="path3011"
           d="m 388.88889,381.16877 c -26.74897,11.11111 -20.57613,9.46502 -20.57613,9.46502 l -14.81482,10.69959 -24.27983,25.92592 -10.69959,23.45679 1.23456,13.99177 16.04939,17.28396 20.98765,12.7572 19.75309,6.99588 c 8.74063,1.35953 22.69606,1.51564 45.67901,-0.41152 l 11.52264,-6.17284 12.34567,-9.0535 16.46091,-18.51852 2.46914,-8.23045 2.88065,-13.58025 2.05762,-9.46502 0,-8.64198 -1.64609,-6.17283 -4.11523,-11.11112 -9.0535,-8.64197 -6.99588,-7.40741 -11.52264,-8.64197 -11.93415,-9.0535 -6.58436,-2.46914 -14.4033,0.82305 z"
           style="fill:#ffccaa;stroke:#000000;stroke-width:1px;stroke-linecap:butt;stroke-linejoin:miter;stroke-opacity:1;display:inline" />
        <path
           sodipodi:nodetypes="ccccccccccccccccccccccccccc"
           inkscape:connector-curvature="0"
           id="path3008"
           d="m 425.81779,414.1822 -8.74718,6.80336 -4.49508,9.23314 -1.57936,4.00913 -0.72893,8.5042 2.42977,8.99016 3.15871,5.83146 5.46699,5.95295 6.56039,3.28019 5.83145,1.45786 6.19593,1.45787 5.22401,-0.60745 8.86867,-7.4108 c 2.03192,-2.67862 2.27231,-2.29821 6.19592,-8.26123 l 5.22402,-7.04635 2.55126,-7.77527 0.60744,-5.46699 -0.48595,-4.85955 -1.57935,-6.80336 -3.15871,-5.34551 -6.92485,-5.70996 -6.92486,-2.91573 -5.58848,0 -3.76615,0.85042 -5.10252,1.45786 -3.15871,1.45787 z"
           style="fill:#280b0b;stroke:#000000;stroke-width:1px;stroke-linecap:butt;stroke-linejoin:miter;stroke-opacity:1;display:inline" />
        <path
           sodipodi:nodetypes="cccccccccccccccccccc"
           inkscape:connector-curvature="0"
           id="path3005"
           d="m 432.25669,359.87676 c -4.13061,1.45786 -4.13061,1.45786 -4.13061,1.45786 l -1.57935,1.70084 -0.48596,4.49509 0.24297,4.61657 1.0934,3.28019 2.06531,2.1868 3.15871,2.55126 3.03721,0.48596 2.79424,-0.24299 c 1.98974,-3.16684 1.54573,-2.68305 2.30829,-4.00912 l 0.60744,-2.30829 -0.36447,-4.61657 -0.60744,-3.03721 -1.0934,-3.15871 -1.94382,-1.45786 -0.9719,-0.85043 -2.06531,-0.60744 -1.33638,-0.36446 z"
           style="fill:#000000;stroke:#000000;stroke-width:1px;stroke-linecap:butt;stroke-linejoin:miter;stroke-opacity:1;display:inline" />
        <g
           id="g3016">
          <path
             style="fill:#000000;stroke:#000000;stroke-width:1px;stroke-linecap:butt;stroke-linejoin:miter;stroke-opacity:1"
             d="m 353.76879,362.86417 c -3.84398,7.55088 -2.01275,5.06534 -3.83866,8.85497 l -0.0513,3.70037 1.31443,5.0554 c 2.51307,2.84697 3.04041,1.93675 8.15075,5.60997 3.1746,2.64418 4.67711,2.29619 7.85171,1.18572 5.47373,-0.52783 5.06529,-1.69702 7.05534,-2.92158 l 3.24719,-5.58675 c 0.36812,-4.16513 0.36842,-1.6864 -0.12632,-9.05963 -1.40333,-4.71238 -2.67873,-5.28109 -3.88195,-7.78679 l -5.71022,-3.2594 -7.63195,0.80858 z"
             id="path3002"
             inkscape:connector-curvature="0"
             sodipodi:nodetypes="ccccccccccccc" />
        </g>
      </g>
      <path
         inkscape:connector-curvature="0"
         id="path13316"
         d="m 315.63948,660.29019 0,61.78543 245.64069,112.86788 0,-69.56942 z"
         style="fill:#eeaaff;fill-opacity:1;stroke:#000000;stroke-width:1.92643964px;stroke-linecap:butt;stroke-linejoin:miter;stroke-opacity:1;display:inline" />
      <path
         style="fill:#eeaaff;stroke:#000000;stroke-width:1.92643964px;stroke-linecap:butt;stroke-linejoin:miter;stroke-opacity:1;display:inline"
         d="m 317.54393,764.88758 243.24974,-0.4865 -0.4865,69.08293 -242.76324,0.48648 z"
         id="path13318"
         inkscape:connector-curvature="0" />
      <path
         inkscape:connector-curvature="0"
         id="path4163"
         d="m 75.714286,825.93313 c 19.748567,-56.45524 39.908574,-112.08761 76.428564,-135 L 270,678.79027 l 60,34.28571 -81.42858,21.42857 c -16.21429,17.34308 -12.42111,32.09929 -10.03486,45.14373 4.45578,24.35754 -11.05506,42.54736 -33.53656,60.57056 z"
         style="fill:#ffff00;stroke:#000000;stroke-width:3;stroke-linecap:butt;stroke-linejoin:miter;stroke-miterlimit:4;stroke-opacity:1;stroke-dasharray:none;filter:url(#filter4217)"
         sodipodi:nodetypes="cccccscc" />
      <path
         style="fill:#00aa88;fill-opacity:1;stroke:#000000;stroke-width:5.77931881;stroke-miterlimit:4;stroke-opacity:1;stroke-dasharray:none;display:inline"
         d="m 297.91588,693.211 c -52.96965,52.96966 0,224.73122 0,224.73122 l 19.2644,0 0,-125.03797 243.3936,0 0,125.03797 18.60219,0 c 0,0 52.96965,-171.76156 0,-224.73122 -66.29366,-66.29366 -214.96653,-66.29366 -281.26019,0 z m 19.2644,14.3279 243.3936,0 0,56.46876 c -102.25154,-44.58741 -175.81157,-28.60383 -243.3936,0 z"
         id="rect12777"
         inkscape:connector-curvature="0"
         sodipodi:nodetypes="accccccaaccccc" />
      <path
         style="fill:#cccccc;fill-opacity:1;stroke:#000000;stroke-width:5.77931881;stroke-linecap:round;stroke-linejoin:round;stroke-miterlimit:4;stroke-opacity:1;stroke-dasharray:none;display:inline"
         d="m 322.55757,709.50828 0.4865,66.19874 c 67.58203,-28.60383 141.14206,-44.5874 243.39361,0 l -4.865,-64.73925 z"
         id="rect13359"
         inkscape:connector-curvature="0"
         sodipodi:nodetypes="ccccc" />
      <path
         sodipodi:type="star"
         style="fill:#ffff00;fill-opacity:1;stroke:#000000;stroke-width:10.14033699;stroke-linecap:round;stroke-linejoin:round;stroke-miterlimit:4;stroke-opacity:1;stroke-dasharray:none;display:inline"
         id="path13368"
         sodipodi:sides="10"
         sodipodi:cx="68.690376"
         sodipodi:cy="542.23517"
         sodipodi:r1="66.878281"
         sodipodi:r2="33.43914"
         sodipodi:arg1="1.0835045"
         sodipodi:arg2="1.3976638"
         inkscape:flatsided="false"
         inkscape:rounded="0"
         inkscape:randomized="0"
         d="M 100.0051,601.3291 74.4509,575.17439 59.289985,608.4495 53.989548,572.26951 22.165495,590.27827 39.143412,557.89253 2.8119288,553.75622 35.583213,537.53497 8.6216899,512.83351 l 36.0471351,6.13922 -7.293177,-35.83149 25.554205,26.1547 15.160914,-33.2751 5.300438,36.17999 31.824055,-18.00877 -16.97792,32.38575 36.33148,4.13631 -32.77128,16.22125 26.96152,24.70145 -36.047132,-6.13921 z"
         transform="matrix(0.18997786,0,0,0.18997786,432.6079,625.90477)" />
      <path
         style="fill:#ffff00;fill-opacity:1;stroke:#000000;stroke-width:1.92643964;stroke-linecap:round;stroke-linejoin:round;stroke-miterlimit:4;stroke-opacity:1;stroke-dasharray:none;display:inline"
         d="m 364.37112,720.30368 c -7.37939,0 -13.35956,5.98015 -13.35956,13.35955 0,7.3794 5.98017,13.35957 13.35956,13.35957 3.77963,0 7.19236,-1.56681 9.62285,-4.08945 -0.88144,0.22865 -1.81374,0.35273 -2.76671,0.35273 -6.0511,0 -10.95659,-4.9055 -10.95659,-10.9566 0,-5.57464 4.16978,-10.17821 9.5567,-10.86842 -1.66539,-0.74555 -3.51354,-1.15738 -5.45625,-1.15738 z"
         id="path13370"
         inkscape:connector-curvature="0" />
      <path
         inkscape:connector-curvature="0"
         id="path13375"
         d="m 529.93625,722.24969 c 7.37938,0 13.35955,5.98015 13.35955,13.35955 0,7.3794 -5.98017,13.35957 -13.35955,13.35957 -3.77964,0 -7.19236,-1.56681 -9.62285,-4.08944 0.88144,0.22864 1.81374,0.35273 2.76671,0.35273 6.0511,0 10.95659,-4.90551 10.95659,-10.95661 0,-5.57463 -4.16978,-10.17821 -9.5567,-10.86841 1.66538,-0.74555 3.51353,-1.15739 5.45625,-1.15739 z"
         style="fill:#ffff00;fill-opacity:1;stroke:#000000;stroke-width:1.92643964;stroke-linecap:round;stroke-linejoin:round;stroke-miterlimit:4;stroke-opacity:1;stroke-dasharray:none;display:inline" />
      <path
         transform="matrix(1.9264396,0,0,1.9264396,-77.292634,-191.18199)"
         sodipodi:type="star"
         style="fill:#ffff00;fill-opacity:1;stroke:#000000;stroke-width:1;stroke-linecap:round;stroke-linejoin:round;stroke-miterlimit:4;stroke-opacity:1;stroke-dasharray:none;display:inline"
         id="path13377"
         sodipodi:sides="5"
         sodipodi:cx="243.44676"
         sodipodi:cy="474.55493"
         sodipodi:r1="3.0826209"
         sodipodi:r2="1.5413104"
         sodipodi:arg1="0.61072596"
         sodipodi:arg2="1.2390445"
         inkscape:flatsided="false"
         inkscape:rounded="0"
         inkscape:randomized="0"
         d="m 245.97214,476.3227 -2.02337,-0.3105 -1.40287,1.49078 -0.32995,-2.02029 -1.85133,-0.87353 1.81945,-0.93811 0.25868,-2.03065 1.45444,1.44051 2.0112,-0.38149 -0.92056,1.8284 z"
         inkscape:transform-center-x="0.27838121"
         inkscape:transform-center-y="0.016757501" />
      <path
         transform="matrix(1.9264396,0,0,1.9264396,-77.292634,-191.18199)"
         sodipodi:type="star"
         style="fill:#ffff00;fill-opacity:1;stroke:#000000;stroke-width:1;stroke-linecap:round;stroke-linejoin:round;stroke-miterlimit:4;stroke-opacity:1;stroke-dasharray:none;display:inline"
         id="path13383"
         sodipodi:sides="5"
         sodipodi:cx="296.7323"
         sodipodi:cy="474.80746"
         sodipodi:r1="3.7542493"
         sodipodi:r2="1.8771247"
         sodipodi:arg1="0.73781506"
         sodipodi:arg2="1.3661336"
         inkscape:flatsided="false"
         inkscape:rounded="0"
         inkscape:randomized="0"
         d="m 299.51022,477.33285 -2.39642,-0.68744 -1.92486,1.5844 -0.0867,-2.49156 -2.10167,-1.34104 2.34281,-0.85244 0.62596,-2.4132 1.53468,1.96472 2.48852,-0.1504 -1.39432,2.0667 z"
         inkscape:transform-center-x="0.23578064"
         inkscape:transform-center-y="-0.12677618" />
    </g>
  </g>
</svg>
