<?xml version="1.0" encoding="UTF-8" standalone="no"?>
<!-- Created with Inkscape (http://www.inkscape.org/) -->

<svg
   xmlns:dc="http://purl.org/dc/elements/1.1/"
   xmlns:cc="http://creativecommons.org/ns#"
   xmlns:rdf="http://www.w3.org/1999/02/22-rdf-syntax-ns#"
   xmlns:svg="http://www.w3.org/2000/svg"
   xmlns="http://www.w3.org/2000/svg"
   xmlns:xlink="http://www.w3.org/1999/xlink"
   xmlns:sodipodi="http://sodipodi.sourceforge.net/DTD/sodipodi-0.dtd"
   xmlns:inkscape="http://www.inkscape.org/namespaces/inkscape"
   width="625"
   height="625"
   id="svg4915"
   version="1.1"
   inkscape:version="0.48.4 r9939"
   sodipodi:docname="pajamas.svg">
  <defs
     id="defs4917">
    <linearGradient
       inkscape:collect="always"
       xlink:href="#linearGradient50743-9"
       id="linearGradient5747"
       x1="1120.7998"
       y1="535.59149"
       x2="1263.9634"
       y2="448.70837"
       gradientUnits="userSpaceOnUse" />
    <linearGradient
       id="linearGradient50743-9">
      <stop
         style="stop-color:#ff1b75;stop-opacity:1;"
         offset="0"
         id="stop50745-8" />
      <stop
         style="stop-color:#ffb7d3;stop-opacity:1;"
         offset="1"
         id="stop50747-5" />
    </linearGradient>
    <linearGradient
       inkscape:collect="always"
       xlink:href="#linearGradient50727-2"
       id="linearGradient54887"
       gradientUnits="userSpaceOnUse"
       x1="920.83472"
       y1="194.09268"
       x2="964.31305"
       y2="117.41595"
       spreadMethod="pad" />
    <linearGradient
       id="linearGradient50727-2">
      <stop
         style="stop-color:#7b278f;stop-opacity:1;"
         offset="0"
         id="stop50729-2" />
      <stop
         style="stop-color:#d79fe5;stop-opacity:1;"
         offset="1"
         id="stop50731-4" />
    </linearGradient>
    <linearGradient
       inkscape:collect="always"
       xlink:href="#linearGradient50727-9"
       id="linearGradient54885"
       gradientUnits="userSpaceOnUse"
       gradientTransform="matrix(0.9631096,0.26910949,-0.26910949,0.9631096,757.4357,-491.11611)"
       x1="286.18265"
       y1="380.01746"
       x2="696.15143"
       y2="374.96671" />
    <linearGradient
       id="linearGradient50727-9">
      <stop
         style="stop-color:#7b278f;stop-opacity:1;"
         offset="0"
         id="stop50729-7" />
      <stop
         style="stop-color:#d79fe5;stop-opacity:1;"
         offset="1"
         id="stop50731-2" />
    </linearGradient>
    <linearGradient
       y2="374.96671"
       x2="696.15143"
       y1="380.01746"
       x1="286.18265"
       gradientTransform="matrix(0.99206962,0.03928284,-0.03928284,0.99206962,8.2797858,418.44474)"
       gradientUnits="userSpaceOnUse"
       id="linearGradient5036"
       xlink:href="#linearGradient50727-9"
       inkscape:collect="always" />
  </defs>
  <sodipodi:namedview
     id="base"
     pagecolor="#ffffff"
     bordercolor="#666666"
     borderopacity="1.0"
     inkscape:pageopacity="0.0"
     inkscape:pageshadow="2"
     inkscape:zoom="0.98994949"
     inkscape:cx="227.15344"
     inkscape:cy="260.22289"
     inkscape:document-units="px"
     inkscape:current-layer="layer1"
     showgrid="false"
     inkscape:window-width="1871"
     inkscape:window-height="1056"
     inkscape:window-x="49"
     inkscape:window-y="24"
     inkscape:window-maximized="1"
     units="pt" />
  <metadata
     id="metadata4920">
    <rdf:RDF>
      <cc:Work
         rdf:about="">
        <dc:format>image/svg+xml</dc:format>
        <dc:type
           rdf:resource="http://purl.org/dc/dcmitype/StillImage" />
        <dc:title />
      </cc:Work>
    </rdf:RDF>
  </metadata>
  <g
     inkscape:label="Layer 1"
     inkscape:groupmode="layer"
     id="layer1"
     transform="translate(0,-427.36221)">
    <path
       inkscape:connector-curvature="0"
       id="rect47887"
       d="m 99.48073,804.13678 0.80713,4.5218 -18.1099,211.85562 69.93868,5.9877 17.39484,-203.86639 8.33127,-1.48717 86.85462,185.25746 63.54776,-29.81536 -91.11696,-194.27576 -0.47545,-2.66351 -137.17199,24.48561 z"
       style="fill:#ff3484;fill-opacity:1;stroke:none;display:inline;enable-background:new" />
    <path
       inkscape:connector-curvature="0"
       id="path50305"
       d="m 347.75034,679.77732 -0.20644,5.21434 -71.73241,230.67016 76.14758,23.69065 68.99161,-221.97914 9.60724,0.38041 51.22376,226.73933 77.78248,-17.59555 -53.75538,-237.7853 0.12158,-3.07145 -158.18002,-6.26345 z"
       style="fill:url(#linearGradient5036);fill-opacity:1;stroke:none;display:inline;enable-background:new" />
    <path
       style="fill:#8e40a1;fill-opacity:1;stroke:#000000;stroke-width:1.04139864px;stroke-linecap:butt;stroke-linejoin:miter;stroke-opacity:1"
       d="m 246.56758,480.96322 13.38941,41.65594 107.11528,-16.36482 -41.65594,111.57841 175.55005,19.34027 -16.36482,-111.57843 102.65215,41.65594 23.8034,-38.6805 -136.86953,-63.97164 -50.58224,60.9962 -35.70509,-69.92248 z"
       id="path6266"
       inkscape:connector-curvature="0" />
    <path
       sodipodi:type="arc"
       style="fill:#fff6d5;fill-opacity:1;fill-rule:nonzero;stroke:none;display:inline;enable-background:new"
       id="path5192"
       sodipodi:cx="221.47595"
       sodipodi:cy="198.53075"
       sodipodi:rx="40.658642"
       sodipodi:ry="40.658642"
       d="m 262.13459,198.53075 c 0,22.45514 -18.20349,40.65864 -40.65864,40.65864 -22.45515,0 -40.65864,-18.2035 -40.65864,-40.65864 0,-22.45515 18.20349,-40.65865 40.65864,-40.65865 22.45515,0 40.65864,18.2035 40.65864,40.65865 z"
       transform="matrix(1.0451309,0.13166148,-0.1324596,1.0514662,214.89061,333.92365)" />
    <path
       sodipodi:nodetypes="cccccsscccccscc"
       inkscape:connector-curvature="0"
       id="path3478-6"
       d="m 448.09377,544.55931 7.11152,9.16438 c -7.12068,-9.1733 0,0 -7.11152,-9.16438 z m -50.34151,-9.66011 c -0.28244,12.15992 -1.46078,24.07068 -0.64129,31.36902 1.34892,12.03413 18.21906,22.88944 22.88973,32.08326 7.04411,13.86564 29.39035,-7.75415 31.14219,-21.66082 0.52352,-4.15502 1.08951,-11.55428 -0.45448,-15.25971 2.39636,-3.21243 3.36445,-4.80687 4.51688,-7.70726 l -10.18698,2.02719 3.06724,-11.18745 c -4.29264,1.93967 -8.00335,4.21151 -11.03529,6.87314 -4.19016,-3.47855 -4.99403,-3.9396 -10.99529,-4.69562 -5.82642,-0.73398 -6.98988,-0.36558 -11.81623,1.82194 -4.27243,-5.50399 -5.69657,-7.33865 -16.48648,-13.66369 z"
       style="fill:#e9c6af;fill-opacity:1;fill-rule:nonzero;stroke:none;stroke-width:27.14460373;marker:none;visibility:visible;display:inline;overflow:visible;enable-background:accumulate" />
    <path
       inkscape:connector-curvature="0"
       id="path4202"
       d="m 429.83155,594.48576 c -2.08383,-1.02745 -3.31204,-3.09545 -3.05858,-5.1498 l 0.0665,-0.53983 1.72694,0.13483 c 1.46285,0.11422 5.44742,0.78025 5.56365,0.93 0.0181,0.0233 0.0383,0.39096 0.0448,0.8171 0.0296,1.93156 -0.93187,3.27164 -2.78243,3.87787 -0.88445,0.28972 -0.82572,0.29236 -1.56097,-0.0701 l 0,0 z"
       style="fill:#000000;fill-opacity:1;stroke:none;display:inline;enable-background:new" />
    <path
       transform="matrix(0.10161793,0.01280143,-0.0152756,0.12125795,441.43157,509.50143)"
       d="m -160,470 c 0,5.52285 -4.47715,10 -10,10 -5.52285,0 -10,-4.47715 -10,-10 0,-5.52285 4.47715,-10 10,-10 5.52285,0 10,4.47715 10,10 z"
       sodipodi:ry="10"
       sodipodi:rx="10"
       sodipodi:cy="470"
       sodipodi:cx="-170"
       id="path4223-6"
       style="fill:#000000;fill-opacity:1;stroke:none;display:inline;enable-background:new"
       sodipodi:type="arc" />
    <path
       transform="matrix(0.10161793,0.01280143,-0.0152756,0.12125795,460.61368,510.0262)"
       d="m -160,470 c 0,5.52285 -4.47715,10 -10,10 -5.52285,0 -10,-4.47715 -10,-10 0,-5.52285 4.47715,-10 10,-10 5.52285,0 10,4.47715 10,10 z"
       sodipodi:ry="10"
       sodipodi:rx="10"
       sodipodi:cy="470"
       sodipodi:cx="-170"
       id="path4223-6-0"
       style="fill:#000000;fill-opacity:1;stroke:none;display:inline;enable-background:new"
       sodipodi:type="arc" />
    <path
       sodipodi:type="arc"
       style="fill:#000000;fill-opacity:0;fill-rule:nonzero;stroke:none"
       id="path5263"
       sodipodi:cx="235"
       sodipodi:cy="408.79074"
       sodipodi:rx="37.857143"
       sodipodi:ry="37.857143"
       d="m 272.85714,408.79074 c 0,20.90792 -16.94922,37.85714 -37.85714,37.85714 -20.90792,0 -37.85714,-16.94922 -37.85714,-37.85714 0,-20.90792 16.94922,-37.85714 37.85714,-37.85714 20.90792,0 37.85714,16.94922 37.85714,37.85714 z"
       transform="matrix(1.0413987,0,0,1.0413987,-57.346875,279.01232)" />
    <path
       style="fill:#ff3484;fill-opacity:1;stroke:#000000;stroke-width:1.04139864px;stroke-linecap:butt;stroke-linejoin:miter;stroke-opacity:1"
       d="M 6.6247518,687.61776 107.7892,620.6707 l 55.04535,40.16823 20.82797,-60.99621 127.94324,1.48771 -5.95084,40.16825 -96.70128,-2.97543 53.55764,86.28731 -148.77124,49.09451 -1.48772,-102.65215 -83.311885,50.58222 z"
       id="path5265"
       inkscape:connector-curvature="0" />
    <path
       transform="matrix(0.61125572,0,0,0.61125572,22.278073,426.24466)"
       style="fill:#d5f6ff;fill-opacity:1;fill-rule:nonzero;stroke:none"
       d="m 320.00001,449.50504 c 0,36.29299 -29.42129,65.71428 -65.71429,65.71428 -36.293,0 -65.71429,-29.42129 -65.71429,-65.71428 0,-36.293 29.42129,-65.71429 65.71429,-65.71429 36.293,0 65.71429,29.42129 65.71429,65.71429 z"
       id="path5267" />
    <g
       style="stroke:none;display:inline;enable-background:new"
       id="g50703"
       transform="matrix(-0.61255328,-0.45818629,-0.45818629,0.61255328,1077.0357,1014.7354)">
      <path
         sodipodi:nodetypes="sssssss"
         inkscape:connector-curvature="0"
         id="path50705"
         d="m 916.67732,368.71588 c 2.15378,1.53691 1.28558,3.96732 1.01799,6.59966 -0.2844,2.79762 -0.18592,8.17142 -2.98576,8.43313 -2.74933,0.25699 -1.6739,-5.21197 -3.8928,-6.85556 -2.26146,-1.67514 -8.18493,0.32115 -8.74491,-2.43688 -0.54107,-2.66484 3.83373,-4.06177 6.32477,-5.15211 2.48042,-1.08569 6.07671,-2.16098 8.28071,-0.58824 z"
         inkscape:transform-center-y="0.62285292"
         inkscape:transform-center-x="2.2694014"
         style="fill:#000000;fill-opacity:1;fill-rule:nonzero;stroke:none;display:inline" />
      <path
         inkscape:transform-center-y="2.0894931"
         inkscape:transform-center-x="1.8904937"
         transform="matrix(0.65020464,0.46809179,-0.46809179,0.65020464,838.45501,145.92122)"
         d="m 234.91072,164.95146 c 0,2.219 -1.11929,4.01786 -2.5,4.01786 -1.38071,0 -2.5,-1.79886 -2.5,-4.01786 0,-2.219 1.11929,-4.01786 2.5,-4.01786 1.38071,0 2.5,1.79886 2.5,4.01786 z"
         sodipodi:ry="4.0178571"
         sodipodi:rx="2.5"
         sodipodi:cy="164.95146"
         sodipodi:cx="232.41072"
         id="path50707"
         style="fill:#000000;fill-opacity:1;fill-rule:nonzero;stroke:none;display:inline"
         sodipodi:type="arc" />
      <path
         transform="matrix(0.69088569,0.40565128,-0.40565128,0.69088569,825.15767,153.96181)"
         sodipodi:type="arc"
         style="fill:#000000;fill-opacity:1;fill-rule:nonzero;stroke:none;display:inline"
         id="path50709"
         sodipodi:cx="232.41072"
         sodipodi:cy="164.95146"
         sodipodi:rx="2.5"
         sodipodi:ry="4.0178571"
         d="m 234.91072,164.95146 c 0,2.219 -1.11929,4.01786 -2.5,4.01786 -1.38071,0 -2.5,-1.79886 -2.5,-4.01786 0,-2.219 1.11929,-4.01786 2.5,-4.01786 1.38071,0 2.5,1.79886 2.5,4.01786 z" />
      <path
         inkscape:transform-center-y="1.9899934"
         inkscape:transform-center-x="0.89549703"
         d="m 234.91072,164.95146 c 0,2.219 -1.11929,4.01786 -2.5,4.01786 -1.38071,0 -2.5,-1.79886 -2.5,-4.01786 0,-2.219 1.11929,-4.01786 2.5,-4.01786 1.38071,0 2.5,1.79886 2.5,4.01786 z"
         sodipodi:ry="4.0178571"
         sodipodi:rx="2.5"
         sodipodi:cy="164.95146"
         sodipodi:cx="232.41072"
         id="path50711"
         style="fill:#000000;fill-opacity:1;fill-rule:nonzero;stroke:none;display:inline"
         sodipodi:type="arc"
         transform="matrix(0.51137747,0.61674069,-0.61674069,0.51137747,905.92178,138.49833)" />
      <path
         transform="matrix(0.51137747,0.61674069,-0.61674069,0.51137747,906.63923,144.55677)"
         sodipodi:type="arc"
         style="fill:#000000;fill-opacity:1;fill-rule:nonzero;stroke:none;display:inline"
         id="path50713"
         sodipodi:cx="232.41072"
         sodipodi:cy="164.95146"
         sodipodi:rx="2.5"
         sodipodi:ry="4.0178571"
         d="m 234.91072,164.95146 c 0,2.219 -1.11929,4.01786 -2.5,4.01786 -1.38071,0 -2.5,-1.79886 -2.5,-4.01786 0,-2.219 1.11929,-4.01786 2.5,-4.01786 1.38071,0 2.5,1.79886 2.5,4.01786 z"
         inkscape:transform-center-x="0.89549703"
         inkscape:transform-center-y="1.9899934" />
    </g>
    <g
       transform="matrix(-0.61255328,-0.45818629,-0.45818629,0.61255328,1213.5556,930.79402)"
       id="g6627"
       style="stroke:none;display:inline;enable-background:new">
      <path
         style="fill:#000000;fill-opacity:1;fill-rule:nonzero;stroke:none;display:inline"
         inkscape:transform-center-x="2.2694014"
         inkscape:transform-center-y="0.62285292"
         d="m 916.67732,368.71588 c 2.15378,1.53691 1.28558,3.96732 1.01799,6.59966 -0.2844,2.79762 -0.18592,8.17142 -2.98576,8.43313 -2.74933,0.25699 -1.6739,-5.21197 -3.8928,-6.85556 -2.26146,-1.67514 -8.18493,0.32115 -8.74491,-2.43688 -0.54107,-2.66484 3.83373,-4.06177 6.32477,-5.15211 2.48042,-1.08569 6.07671,-2.16098 8.28071,-0.58824 z"
         id="path6629"
         inkscape:connector-curvature="0"
         sodipodi:nodetypes="sssssss" />
      <path
         sodipodi:type="arc"
         style="fill:#000000;fill-opacity:1;fill-rule:nonzero;stroke:none;display:inline"
         id="path6631"
         sodipodi:cx="232.41072"
         sodipodi:cy="164.95146"
         sodipodi:rx="2.5"
         sodipodi:ry="4.0178571"
         d="m 234.91072,164.95146 c 0,2.219 -1.11929,4.01786 -2.5,4.01786 -1.38071,0 -2.5,-1.79886 -2.5,-4.01786 0,-2.219 1.11929,-4.01786 2.5,-4.01786 1.38071,0 2.5,1.79886 2.5,4.01786 z"
         transform="matrix(0.65020464,0.46809179,-0.46809179,0.65020464,838.45501,145.92122)"
         inkscape:transform-center-x="1.8904937"
         inkscape:transform-center-y="2.0894931" />
      <path
         d="m 234.91072,164.95146 c 0,2.219 -1.11929,4.01786 -2.5,4.01786 -1.38071,0 -2.5,-1.79886 -2.5,-4.01786 0,-2.219 1.11929,-4.01786 2.5,-4.01786 1.38071,0 2.5,1.79886 2.5,4.01786 z"
         sodipodi:ry="4.0178571"
         sodipodi:rx="2.5"
         sodipodi:cy="164.95146"
         sodipodi:cx="232.41072"
         id="path6633"
         style="fill:#000000;fill-opacity:1;fill-rule:nonzero;stroke:none;display:inline"
         sodipodi:type="arc"
         transform="matrix(0.69088569,0.40565128,-0.40565128,0.69088569,825.15767,153.96181)" />
      <path
         transform="matrix(0.51137747,0.61674069,-0.61674069,0.51137747,905.92178,138.49833)"
         sodipodi:type="arc"
         style="fill:#000000;fill-opacity:1;fill-rule:nonzero;stroke:none;display:inline"
         id="path6635"
         sodipodi:cx="232.41072"
         sodipodi:cy="164.95146"
         sodipodi:rx="2.5"
         sodipodi:ry="4.0178571"
         d="m 234.91072,164.95146 c 0,2.219 -1.11929,4.01786 -2.5,4.01786 -1.38071,0 -2.5,-1.79886 -2.5,-4.01786 0,-2.219 1.11929,-4.01786 2.5,-4.01786 1.38071,0 2.5,1.79886 2.5,4.01786 z"
         inkscape:transform-center-x="0.89549703"
         inkscape:transform-center-y="1.9899934" />
      <path
         inkscape:transform-center-y="1.9899934"
         inkscape:transform-center-x="0.89549703"
         d="m 234.91072,164.95146 c 0,2.219 -1.11929,4.01786 -2.5,4.01786 -1.38071,0 -2.5,-1.79886 -2.5,-4.01786 0,-2.219 1.11929,-4.01786 2.5,-4.01786 1.38071,0 2.5,1.79886 2.5,4.01786 z"
         sodipodi:ry="4.0178571"
         sodipodi:rx="2.5"
         sodipodi:cy="164.95146"
         sodipodi:cx="232.41072"
         id="path6637"
         style="fill:#000000;fill-opacity:1;fill-rule:nonzero;stroke:none;display:inline"
         sodipodi:type="arc"
         transform="matrix(0.51137747,0.61674069,-0.61674069,0.51137747,906.63923,144.55677)" />
    </g>
    <g
       style="stroke:none;display:inline;enable-background:new"
       id="g6639"
       transform="matrix(-0.61255328,-0.45818629,-0.45818629,0.61255328,1090.8722,785.97219)">
      <path
         sodipodi:nodetypes="sssssss"
         inkscape:connector-curvature="0"
         id="path6641"
         d="m 916.67732,368.71588 c 2.15378,1.53691 1.28558,3.96732 1.01799,6.59966 -0.2844,2.79762 -0.18592,8.17142 -2.98576,8.43313 -2.74933,0.25699 -1.6739,-5.21197 -3.8928,-6.85556 -2.26146,-1.67514 -8.18493,0.32115 -8.74491,-2.43688 -0.54107,-2.66484 3.83373,-4.06177 6.32477,-5.15211 2.48042,-1.08569 6.07671,-2.16098 8.28071,-0.58824 z"
         inkscape:transform-center-y="0.62285292"
         inkscape:transform-center-x="2.2694014"
         style="fill:#000000;fill-opacity:1;fill-rule:nonzero;stroke:none;display:inline" />
      <path
         inkscape:transform-center-y="2.0894931"
         inkscape:transform-center-x="1.8904937"
         transform="matrix(0.65020464,0.46809179,-0.46809179,0.65020464,838.45501,145.92122)"
         d="m 234.91072,164.95146 c 0,2.219 -1.11929,4.01786 -2.5,4.01786 -1.38071,0 -2.5,-1.79886 -2.5,-4.01786 0,-2.219 1.11929,-4.01786 2.5,-4.01786 1.38071,0 2.5,1.79886 2.5,4.01786 z"
         sodipodi:ry="4.0178571"
         sodipodi:rx="2.5"
         sodipodi:cy="164.95146"
         sodipodi:cx="232.41072"
         id="path6643"
         style="fill:#000000;fill-opacity:1;fill-rule:nonzero;stroke:none;display:inline"
         sodipodi:type="arc" />
      <path
         transform="matrix(0.69088569,0.40565128,-0.40565128,0.69088569,825.15767,153.96181)"
         sodipodi:type="arc"
         style="fill:#000000;fill-opacity:1;fill-rule:nonzero;stroke:none;display:inline"
         id="path6645"
         sodipodi:cx="232.41072"
         sodipodi:cy="164.95146"
         sodipodi:rx="2.5"
         sodipodi:ry="4.0178571"
         d="m 234.91072,164.95146 c 0,2.219 -1.11929,4.01786 -2.5,4.01786 -1.38071,0 -2.5,-1.79886 -2.5,-4.01786 0,-2.219 1.11929,-4.01786 2.5,-4.01786 1.38071,0 2.5,1.79886 2.5,4.01786 z" />
      <path
         inkscape:transform-center-y="1.9899934"
         inkscape:transform-center-x="0.89549703"
         d="m 234.91072,164.95146 c 0,2.219 -1.11929,4.01786 -2.5,4.01786 -1.38071,0 -2.5,-1.79886 -2.5,-4.01786 0,-2.219 1.11929,-4.01786 2.5,-4.01786 1.38071,0 2.5,1.79886 2.5,4.01786 z"
         sodipodi:ry="4.0178571"
         sodipodi:rx="2.5"
         sodipodi:cy="164.95146"
         sodipodi:cx="232.41072"
         id="path6647"
         style="fill:#000000;fill-opacity:1;fill-rule:nonzero;stroke:none;display:inline"
         sodipodi:type="arc"
         transform="matrix(0.51137747,0.61674069,-0.61674069,0.51137747,905.92178,138.49833)" />
      <path
         transform="matrix(0.51137747,0.61674069,-0.61674069,0.51137747,906.63923,144.55677)"
         sodipodi:type="arc"
         style="fill:#000000;fill-opacity:1;fill-rule:nonzero;stroke:none;display:inline"
         id="path6649"
         sodipodi:cx="232.41072"
         sodipodi:cy="164.95146"
         sodipodi:rx="2.5"
         sodipodi:ry="4.0178571"
         d="m 234.91072,164.95146 c 0,2.219 -1.11929,4.01786 -2.5,4.01786 -1.38071,0 -2.5,-1.79886 -2.5,-4.01786 0,-2.219 1.11929,-4.01786 2.5,-4.01786 1.38071,0 2.5,1.79886 2.5,4.01786 z"
         inkscape:transform-center-x="0.89549703"
         inkscape:transform-center-y="1.9899934" />
    </g>
    <g
       transform="matrix(0.45818629,-0.61255328,-0.61255328,-0.45818629,184.28149,1218.8077)"
       id="g6651"
       style="stroke:none;display:inline;enable-background:new">
      <path
         style="fill:#000000;fill-opacity:1;fill-rule:nonzero;stroke:none;display:inline"
         inkscape:transform-center-x="2.2694014"
         inkscape:transform-center-y="0.62285292"
         d="m 916.67732,368.71588 c 2.15378,1.53691 1.28558,3.96732 1.01799,6.59966 -0.2844,2.79762 -0.18592,8.17142 -2.98576,8.43313 -2.74933,0.25699 -1.6739,-5.21197 -3.8928,-6.85556 -2.26146,-1.67514 -8.18493,0.32115 -8.74491,-2.43688 -0.54107,-2.66484 3.83373,-4.06177 6.32477,-5.15211 2.48042,-1.08569 6.07671,-2.16098 8.28071,-0.58824 z"
         id="path6653"
         inkscape:connector-curvature="0"
         sodipodi:nodetypes="sssssss" />
      <path
         sodipodi:type="arc"
         style="fill:#000000;fill-opacity:1;fill-rule:nonzero;stroke:none;display:inline"
         id="path6655"
         sodipodi:cx="232.41072"
         sodipodi:cy="164.95146"
         sodipodi:rx="2.5"
         sodipodi:ry="4.0178571"
         d="m 234.91072,164.95146 c 0,2.219 -1.11929,4.01786 -2.5,4.01786 -1.38071,0 -2.5,-1.79886 -2.5,-4.01786 0,-2.219 1.11929,-4.01786 2.5,-4.01786 1.38071,0 2.5,1.79886 2.5,4.01786 z"
         transform="matrix(0.65020464,0.46809179,-0.46809179,0.65020464,838.45501,145.92122)"
         inkscape:transform-center-x="1.8904937"
         inkscape:transform-center-y="2.0894931" />
      <path
         d="m 234.91072,164.95146 c 0,2.219 -1.11929,4.01786 -2.5,4.01786 -1.38071,0 -2.5,-1.79886 -2.5,-4.01786 0,-2.219 1.11929,-4.01786 2.5,-4.01786 1.38071,0 2.5,1.79886 2.5,4.01786 z"
         sodipodi:ry="4.0178571"
         sodipodi:rx="2.5"
         sodipodi:cy="164.95146"
         sodipodi:cx="232.41072"
         id="path6657"
         style="fill:#000000;fill-opacity:1;fill-rule:nonzero;stroke:none;display:inline"
         sodipodi:type="arc"
         transform="matrix(0.69088569,0.40565128,-0.40565128,0.69088569,825.15767,153.96181)" />
      <path
         transform="matrix(0.51137747,0.61674069,-0.61674069,0.51137747,905.92178,138.49833)"
         sodipodi:type="arc"
         style="fill:#000000;fill-opacity:1;fill-rule:nonzero;stroke:none;display:inline"
         id="path6659"
         sodipodi:cx="232.41072"
         sodipodi:cy="164.95146"
         sodipodi:rx="2.5"
         sodipodi:ry="4.0178571"
         d="m 234.91072,164.95146 c 0,2.219 -1.11929,4.01786 -2.5,4.01786 -1.38071,0 -2.5,-1.79886 -2.5,-4.01786 0,-2.219 1.11929,-4.01786 2.5,-4.01786 1.38071,0 2.5,1.79886 2.5,4.01786 z"
         inkscape:transform-center-x="0.89549703"
         inkscape:transform-center-y="1.9899934" />
      <path
         inkscape:transform-center-y="1.9899934"
         inkscape:transform-center-x="0.89549703"
         d="m 234.91072,164.95146 c 0,2.219 -1.11929,4.01786 -2.5,4.01786 -1.38071,0 -2.5,-1.79886 -2.5,-4.01786 0,-2.219 1.11929,-4.01786 2.5,-4.01786 1.38071,0 2.5,1.79886 2.5,4.01786 z"
         sodipodi:ry="4.0178571"
         sodipodi:rx="2.5"
         sodipodi:cy="164.95146"
         sodipodi:cx="232.41072"
         id="path6661"
         style="fill:#000000;fill-opacity:1;fill-rule:nonzero;stroke:none;display:inline"
         sodipodi:type="arc"
         transform="matrix(0.51137747,0.61674069,-0.61674069,0.51137747,906.63923,144.55677)" />
    </g>
    <g
       style="stroke:none;display:inline;enable-background:new"
       id="g6663"
       transform="matrix(0.45818629,-0.61255328,-0.61255328,-0.45818629,282.98171,1338.7238)">
      <path
         sodipodi:nodetypes="sssssss"
         inkscape:connector-curvature="0"
         id="path6665"
         d="m 916.67732,368.71588 c 2.15378,1.53691 1.28558,3.96732 1.01799,6.59966 -0.2844,2.79762 -0.18592,8.17142 -2.98576,8.43313 -2.74933,0.25699 -1.6739,-5.21197 -3.8928,-6.85556 -2.26146,-1.67514 -8.18493,0.32115 -8.74491,-2.43688 -0.54107,-2.66484 3.83373,-4.06177 6.32477,-5.15211 2.48042,-1.08569 6.07671,-2.16098 8.28071,-0.58824 z"
         inkscape:transform-center-y="0.62285292"
         inkscape:transform-center-x="2.2694014"
         style="fill:#000000;fill-opacity:1;fill-rule:nonzero;stroke:none;display:inline" />
      <path
         inkscape:transform-center-y="2.0894931"
         inkscape:transform-center-x="1.8904937"
         transform="matrix(0.65020464,0.46809179,-0.46809179,0.65020464,838.45501,145.92122)"
         d="m 234.91072,164.95146 c 0,2.219 -1.11929,4.01786 -2.5,4.01786 -1.38071,0 -2.5,-1.79886 -2.5,-4.01786 0,-2.219 1.11929,-4.01786 2.5,-4.01786 1.38071,0 2.5,1.79886 2.5,4.01786 z"
         sodipodi:ry="4.0178571"
         sodipodi:rx="2.5"
         sodipodi:cy="164.95146"
         sodipodi:cx="232.41072"
         id="path6667"
         style="fill:#000000;fill-opacity:1;fill-rule:nonzero;stroke:none;display:inline"
         sodipodi:type="arc" />
      <path
         transform="matrix(0.69088569,0.40565128,-0.40565128,0.69088569,825.15767,153.96181)"
         sodipodi:type="arc"
         style="fill:#000000;fill-opacity:1;fill-rule:nonzero;stroke:none;display:inline"
         id="path6669"
         sodipodi:cx="232.41072"
         sodipodi:cy="164.95146"
         sodipodi:rx="2.5"
         sodipodi:ry="4.0178571"
         d="m 234.91072,164.95146 c 0,2.219 -1.11929,4.01786 -2.5,4.01786 -1.38071,0 -2.5,-1.79886 -2.5,-4.01786 0,-2.219 1.11929,-4.01786 2.5,-4.01786 1.38071,0 2.5,1.79886 2.5,4.01786 z" />
      <path
         inkscape:transform-center-y="1.9899934"
         inkscape:transform-center-x="0.89549703"
         d="m 234.91072,164.95146 c 0,2.219 -1.11929,4.01786 -2.5,4.01786 -1.38071,0 -2.5,-1.79886 -2.5,-4.01786 0,-2.219 1.11929,-4.01786 2.5,-4.01786 1.38071,0 2.5,1.79886 2.5,4.01786 z"
         sodipodi:ry="4.0178571"
         sodipodi:rx="2.5"
         sodipodi:cy="164.95146"
         sodipodi:cx="232.41072"
         id="path6671"
         style="fill:#000000;fill-opacity:1;fill-rule:nonzero;stroke:none;display:inline"
         sodipodi:type="arc"
         transform="matrix(0.51137747,0.61674069,-0.61674069,0.51137747,905.92178,138.49833)" />
      <path
         transform="matrix(0.51137747,0.61674069,-0.61674069,0.51137747,906.63923,144.55677)"
         sodipodi:type="arc"
         style="fill:#000000;fill-opacity:1;fill-rule:nonzero;stroke:none;display:inline"
         id="path6673"
         sodipodi:cx="232.41072"
         sodipodi:cy="164.95146"
         sodipodi:rx="2.5"
         sodipodi:ry="4.0178571"
         d="m 234.91072,164.95146 c 0,2.219 -1.11929,4.01786 -2.5,4.01786 -1.38071,0 -2.5,-1.79886 -2.5,-4.01786 0,-2.219 1.11929,-4.01786 2.5,-4.01786 1.38071,0 2.5,1.79886 2.5,4.01786 z"
         inkscape:transform-center-x="0.89549703"
         inkscape:transform-center-y="1.9899934" />
    </g>
    <g
       transform="matrix(-0.45818629,-0.61255328,0.61255328,-0.45818629,559.33648,1464.1746)"
       id="g6675"
       style="stroke:none;display:inline;enable-background:new">
      <path
         style="fill:#000000;fill-opacity:1;fill-rule:nonzero;stroke:none;display:inline"
         inkscape:transform-center-x="2.2694014"
         inkscape:transform-center-y="0.62285292"
         d="m 916.67732,368.71588 c 2.15378,1.53691 1.28558,3.96732 1.01799,6.59966 -0.2844,2.79762 -0.18592,8.17142 -2.98576,8.43313 -2.74933,0.25699 -1.6739,-5.21197 -3.8928,-6.85556 -2.26146,-1.67514 -8.18493,0.32115 -8.74491,-2.43688 -0.54107,-2.66484 3.83373,-4.06177 6.32477,-5.15211 2.48042,-1.08569 6.07671,-2.16098 8.28071,-0.58824 z"
         id="path6677"
         inkscape:connector-curvature="0"
         sodipodi:nodetypes="sssssss" />
      <path
         sodipodi:type="arc"
         style="fill:#000000;fill-opacity:1;fill-rule:nonzero;stroke:none;display:inline"
         id="path6679"
         sodipodi:cx="232.41072"
         sodipodi:cy="164.95146"
         sodipodi:rx="2.5"
         sodipodi:ry="4.0178571"
         d="m 234.91072,164.95146 c 0,2.219 -1.11929,4.01786 -2.5,4.01786 -1.38071,0 -2.5,-1.79886 -2.5,-4.01786 0,-2.219 1.11929,-4.01786 2.5,-4.01786 1.38071,0 2.5,1.79886 2.5,4.01786 z"
         transform="matrix(0.65020464,0.46809179,-0.46809179,0.65020464,838.45501,145.92122)"
         inkscape:transform-center-x="1.8904937"
         inkscape:transform-center-y="2.0894931" />
      <path
         d="m 234.91072,164.95146 c 0,2.219 -1.11929,4.01786 -2.5,4.01786 -1.38071,0 -2.5,-1.79886 -2.5,-4.01786 0,-2.219 1.11929,-4.01786 2.5,-4.01786 1.38071,0 2.5,1.79886 2.5,4.01786 z"
         sodipodi:ry="4.0178571"
         sodipodi:rx="2.5"
         sodipodi:cy="164.95146"
         sodipodi:cx="232.41072"
         id="path6681"
         style="fill:#000000;fill-opacity:1;fill-rule:nonzero;stroke:none;display:inline"
         sodipodi:type="arc"
         transform="matrix(0.69088569,0.40565128,-0.40565128,0.69088569,825.15767,153.96181)" />
      <path
         transform="matrix(0.51137747,0.61674069,-0.61674069,0.51137747,905.92178,138.49833)"
         sodipodi:type="arc"
         style="fill:#000000;fill-opacity:1;fill-rule:nonzero;stroke:none;display:inline"
         id="path6683"
         sodipodi:cx="232.41072"
         sodipodi:cy="164.95146"
         sodipodi:rx="2.5"
         sodipodi:ry="4.0178571"
         d="m 234.91072,164.95146 c 0,2.219 -1.11929,4.01786 -2.5,4.01786 -1.38071,0 -2.5,-1.79886 -2.5,-4.01786 0,-2.219 1.11929,-4.01786 2.5,-4.01786 1.38071,0 2.5,1.79886 2.5,4.01786 z"
         inkscape:transform-center-x="0.89549703"
         inkscape:transform-center-y="1.9899934" />
      <path
         inkscape:transform-center-y="1.9899934"
         inkscape:transform-center-x="0.89549703"
         d="m 234.91072,164.95146 c 0,2.219 -1.11929,4.01786 -2.5,4.01786 -1.38071,0 -2.5,-1.79886 -2.5,-4.01786 0,-2.219 1.11929,-4.01786 2.5,-4.01786 1.38071,0 2.5,1.79886 2.5,4.01786 z"
         sodipodi:ry="4.0178571"
         sodipodi:rx="2.5"
         sodipodi:cy="164.95146"
         sodipodi:cx="232.41072"
         id="path6685"
         style="fill:#000000;fill-opacity:1;fill-rule:nonzero;stroke:none;display:inline"
         sodipodi:type="arc"
         transform="matrix(0.51137747,0.61674069,-0.61674069,0.51137747,906.63923,144.55677)" />
    </g>
    <g
       style="stroke:none;display:inline;enable-background:new"
       id="g6687"
       transform="matrix(-0.45818629,-0.61255328,0.61255328,-0.45818629,576.86269,1255.7048)">
      <path
         sodipodi:nodetypes="sssssss"
         inkscape:connector-curvature="0"
         id="path6689"
         d="m 916.67732,368.71588 c 2.15378,1.53691 1.28558,3.96732 1.01799,6.59966 -0.2844,2.79762 -0.18592,8.17142 -2.98576,8.43313 -2.74933,0.25699 -1.6739,-5.21197 -3.8928,-6.85556 -2.26146,-1.67514 -8.18493,0.32115 -8.74491,-2.43688 -0.54107,-2.66484 3.83373,-4.06177 6.32477,-5.15211 2.48042,-1.08569 6.07671,-2.16098 8.28071,-0.58824 z"
         inkscape:transform-center-y="0.62285292"
         inkscape:transform-center-x="2.2694014"
         style="fill:#000000;fill-opacity:1;fill-rule:nonzero;stroke:none;display:inline" />
      <path
         inkscape:transform-center-y="2.0894931"
         inkscape:transform-center-x="1.8904937"
         transform="matrix(0.65020464,0.46809179,-0.46809179,0.65020464,838.45501,145.92122)"
         d="m 234.91072,164.95146 c 0,2.219 -1.11929,4.01786 -2.5,4.01786 -1.38071,0 -2.5,-1.79886 -2.5,-4.01786 0,-2.219 1.11929,-4.01786 2.5,-4.01786 1.38071,0 2.5,1.79886 2.5,4.01786 z"
         sodipodi:ry="4.0178571"
         sodipodi:rx="2.5"
         sodipodi:cy="164.95146"
         sodipodi:cx="232.41072"
         id="path6691"
         style="fill:#000000;fill-opacity:1;fill-rule:nonzero;stroke:none;display:inline"
         sodipodi:type="arc" />
      <path
         transform="matrix(0.69088569,0.40565128,-0.40565128,0.69088569,825.15767,153.96181)"
         sodipodi:type="arc"
         style="fill:#000000;fill-opacity:1;fill-rule:nonzero;stroke:none;display:inline"
         id="path6693"
         sodipodi:cx="232.41072"
         sodipodi:cy="164.95146"
         sodipodi:rx="2.5"
         sodipodi:ry="4.0178571"
         d="m 234.91072,164.95146 c 0,2.219 -1.11929,4.01786 -2.5,4.01786 -1.38071,0 -2.5,-1.79886 -2.5,-4.01786 0,-2.219 1.11929,-4.01786 2.5,-4.01786 1.38071,0 2.5,1.79886 2.5,4.01786 z" />
      <path
         inkscape:transform-center-y="1.9899934"
         inkscape:transform-center-x="0.89549703"
         d="m 234.91072,164.95146 c 0,2.219 -1.11929,4.01786 -2.5,4.01786 -1.38071,0 -2.5,-1.79886 -2.5,-4.01786 0,-2.219 1.11929,-4.01786 2.5,-4.01786 1.38071,0 2.5,1.79886 2.5,4.01786 z"
         sodipodi:ry="4.0178571"
         sodipodi:rx="2.5"
         sodipodi:cy="164.95146"
         sodipodi:cx="232.41072"
         id="path6695"
         style="fill:#000000;fill-opacity:1;fill-rule:nonzero;stroke:none;display:inline"
         sodipodi:type="arc"
         transform="matrix(0.51137747,0.61674069,-0.61674069,0.51137747,905.92178,138.49833)" />
      <path
         transform="matrix(0.51137747,0.61674069,-0.61674069,0.51137747,906.63923,144.55677)"
         sodipodi:type="arc"
         style="fill:#000000;fill-opacity:1;fill-rule:nonzero;stroke:none;display:inline"
         id="path6697"
         sodipodi:cx="232.41072"
         sodipodi:cy="164.95146"
         sodipodi:rx="2.5"
         sodipodi:ry="4.0178571"
         d="m 234.91072,164.95146 c 0,2.219 -1.11929,4.01786 -2.5,4.01786 -1.38071,0 -2.5,-1.79886 -2.5,-4.01786 0,-2.219 1.11929,-4.01786 2.5,-4.01786 1.38071,0 2.5,1.79886 2.5,4.01786 z"
         inkscape:transform-center-x="0.89549703"
         inkscape:transform-center-y="1.9899934" />
    </g>
    <g
       transform="matrix(-0.61255328,-0.45818629,-0.45818629,0.61255328,1032.7589,686.34944)"
       id="g6699"
       style="stroke:none;display:inline;enable-background:new">
      <path
         style="fill:#000000;fill-opacity:1;fill-rule:nonzero;stroke:none;display:inline"
         inkscape:transform-center-x="2.2694014"
         inkscape:transform-center-y="0.62285292"
         d="m 916.67732,368.71588 c 2.15378,1.53691 1.28558,3.96732 1.01799,6.59966 -0.2844,2.79762 -0.18592,8.17142 -2.98576,8.43313 -2.74933,0.25699 -1.6739,-5.21197 -3.8928,-6.85556 -2.26146,-1.67514 -8.18493,0.32115 -8.74491,-2.43688 -0.54107,-2.66484 3.83373,-4.06177 6.32477,-5.15211 2.48042,-1.08569 6.07671,-2.16098 8.28071,-0.58824 z"
         id="path6701"
         inkscape:connector-curvature="0"
         sodipodi:nodetypes="sssssss" />
      <path
         sodipodi:type="arc"
         style="fill:#000000;fill-opacity:1;fill-rule:nonzero;stroke:none;display:inline"
         id="path6703"
         sodipodi:cx="232.41072"
         sodipodi:cy="164.95146"
         sodipodi:rx="2.5"
         sodipodi:ry="4.0178571"
         d="m 234.91072,164.95146 c 0,2.219 -1.11929,4.01786 -2.5,4.01786 -1.38071,0 -2.5,-1.79886 -2.5,-4.01786 0,-2.219 1.11929,-4.01786 2.5,-4.01786 1.38071,0 2.5,1.79886 2.5,4.01786 z"
         transform="matrix(0.65020464,0.46809179,-0.46809179,0.65020464,838.45501,145.92122)"
         inkscape:transform-center-x="1.8904937"
         inkscape:transform-center-y="2.0894931" />
      <path
         d="m 234.91072,164.95146 c 0,2.219 -1.11929,4.01786 -2.5,4.01786 -1.38071,0 -2.5,-1.79886 -2.5,-4.01786 0,-2.219 1.11929,-4.01786 2.5,-4.01786 1.38071,0 2.5,1.79886 2.5,4.01786 z"
         sodipodi:ry="4.0178571"
         sodipodi:rx="2.5"
         sodipodi:cy="164.95146"
         sodipodi:cx="232.41072"
         id="path6705"
         style="fill:#000000;fill-opacity:1;fill-rule:nonzero;stroke:none;display:inline"
         sodipodi:type="arc"
         transform="matrix(0.69088569,0.40565128,-0.40565128,0.69088569,825.15767,153.96181)" />
      <path
         transform="matrix(0.51137747,0.61674069,-0.61674069,0.51137747,905.92178,138.49833)"
         sodipodi:type="arc"
         style="fill:#000000;fill-opacity:1;fill-rule:nonzero;stroke:none;display:inline"
         id="path6707"
         sodipodi:cx="232.41072"
         sodipodi:cy="164.95146"
         sodipodi:rx="2.5"
         sodipodi:ry="4.0178571"
         d="m 234.91072,164.95146 c 0,2.219 -1.11929,4.01786 -2.5,4.01786 -1.38071,0 -2.5,-1.79886 -2.5,-4.01786 0,-2.219 1.11929,-4.01786 2.5,-4.01786 1.38071,0 2.5,1.79886 2.5,4.01786 z"
         inkscape:transform-center-x="0.89549703"
         inkscape:transform-center-y="1.9899934" />
      <path
         inkscape:transform-center-y="1.9899934"
         inkscape:transform-center-x="0.89549703"
         d="m 234.91072,164.95146 c 0,2.219 -1.11929,4.01786 -2.5,4.01786 -1.38071,0 -2.5,-1.79886 -2.5,-4.01786 0,-2.219 1.11929,-4.01786 2.5,-4.01786 1.38071,0 2.5,1.79886 2.5,4.01786 z"
         sodipodi:ry="4.0178571"
         sodipodi:rx="2.5"
         sodipodi:cy="164.95146"
         sodipodi:cx="232.41072"
         id="path6709"
         style="fill:#000000;fill-opacity:1;fill-rule:nonzero;stroke:none;display:inline"
         sodipodi:type="arc"
         transform="matrix(0.51137747,0.61674069,-0.61674069,0.51137747,906.63923,144.55677)" />
    </g>
    <g
       style="stroke:none;display:inline;enable-background:new"
       id="g6711"
       transform="matrix(0.45818629,-0.61255328,-0.61255328,-0.45818629,320.80136,1236.3338)">
      <path
         sodipodi:nodetypes="sssssss"
         inkscape:connector-curvature="0"
         id="path6713"
         d="m 916.67732,368.71588 c 2.15378,1.53691 1.28558,3.96732 1.01799,6.59966 -0.2844,2.79762 -0.18592,8.17142 -2.98576,8.43313 -2.74933,0.25699 -1.6739,-5.21197 -3.8928,-6.85556 -2.26146,-1.67514 -8.18493,0.32115 -8.74491,-2.43688 -0.54107,-2.66484 3.83373,-4.06177 6.32477,-5.15211 2.48042,-1.08569 6.07671,-2.16098 8.28071,-0.58824 z"
         inkscape:transform-center-y="0.62285292"
         inkscape:transform-center-x="2.2694014"
         style="fill:#000000;fill-opacity:1;fill-rule:nonzero;stroke:none;display:inline" />
      <path
         inkscape:transform-center-y="2.0894931"
         inkscape:transform-center-x="1.8904937"
         transform="matrix(0.65020464,0.46809179,-0.46809179,0.65020464,838.45501,145.92122)"
         d="m 234.91072,164.95146 c 0,2.219 -1.11929,4.01786 -2.5,4.01786 -1.38071,0 -2.5,-1.79886 -2.5,-4.01786 0,-2.219 1.11929,-4.01786 2.5,-4.01786 1.38071,0 2.5,1.79886 2.5,4.01786 z"
         sodipodi:ry="4.0178571"
         sodipodi:rx="2.5"
         sodipodi:cy="164.95146"
         sodipodi:cx="232.41072"
         id="path6715"
         style="fill:#000000;fill-opacity:1;fill-rule:nonzero;stroke:none;display:inline"
         sodipodi:type="arc" />
      <path
         transform="matrix(0.69088569,0.40565128,-0.40565128,0.69088569,825.15767,153.96181)"
         sodipodi:type="arc"
         style="fill:#000000;fill-opacity:1;fill-rule:nonzero;stroke:none;display:inline"
         id="path6717"
         sodipodi:cx="232.41072"
         sodipodi:cy="164.95146"
         sodipodi:rx="2.5"
         sodipodi:ry="4.0178571"
         d="m 234.91072,164.95146 c 0,2.219 -1.11929,4.01786 -2.5,4.01786 -1.38071,0 -2.5,-1.79886 -2.5,-4.01786 0,-2.219 1.11929,-4.01786 2.5,-4.01786 1.38071,0 2.5,1.79886 2.5,4.01786 z" />
      <path
         inkscape:transform-center-y="1.9899934"
         inkscape:transform-center-x="0.89549703"
         d="m 234.91072,164.95146 c 0,2.219 -1.11929,4.01786 -2.5,4.01786 -1.38071,0 -2.5,-1.79886 -2.5,-4.01786 0,-2.219 1.11929,-4.01786 2.5,-4.01786 1.38071,0 2.5,1.79886 2.5,4.01786 z"
         sodipodi:ry="4.0178571"
         sodipodi:rx="2.5"
         sodipodi:cy="164.95146"
         sodipodi:cx="232.41072"
         id="path6719"
         style="fill:#000000;fill-opacity:1;fill-rule:nonzero;stroke:none;display:inline"
         sodipodi:type="arc"
         transform="matrix(0.51137747,0.61674069,-0.61674069,0.51137747,905.92178,138.49833)" />
      <path
         transform="matrix(0.51137747,0.61674069,-0.61674069,0.51137747,906.63923,144.55677)"
         sodipodi:type="arc"
         style="fill:#000000;fill-opacity:1;fill-rule:nonzero;stroke:none;display:inline"
         id="path6721"
         sodipodi:cx="232.41072"
         sodipodi:cy="164.95146"
         sodipodi:rx="2.5"
         sodipodi:ry="4.0178571"
         d="m 234.91072,164.95146 c 0,2.219 -1.11929,4.01786 -2.5,4.01786 -1.38071,0 -2.5,-1.79886 -2.5,-4.01786 0,-2.219 1.11929,-4.01786 2.5,-4.01786 1.38071,0 2.5,1.79886 2.5,4.01786 z"
         inkscape:transform-center-x="0.89549703"
         inkscape:transform-center-y="1.9899934" />
    </g>
    <g
       transform="matrix(0.45818629,-0.61255328,-0.61255328,-0.45818629,278.36948,1559.185)"
       id="g6723"
       style="stroke:none;display:inline;enable-background:new">
      <path
         style="fill:#000000;fill-opacity:1;fill-rule:nonzero;stroke:none;display:inline"
         inkscape:transform-center-x="2.2694014"
         inkscape:transform-center-y="0.62285292"
         d="m 916.67732,368.71588 c 2.15378,1.53691 1.28558,3.96732 1.01799,6.59966 -0.2844,2.79762 -0.18592,8.17142 -2.98576,8.43313 -2.74933,0.25699 -1.6739,-5.21197 -3.8928,-6.85556 -2.26146,-1.67514 -8.18493,0.32115 -8.74491,-2.43688 -0.54107,-2.66484 3.83373,-4.06177 6.32477,-5.15211 2.48042,-1.08569 6.07671,-2.16098 8.28071,-0.58824 z"
         id="path6725"
         inkscape:connector-curvature="0"
         sodipodi:nodetypes="sssssss" />
      <path
         sodipodi:type="arc"
         style="fill:#000000;fill-opacity:1;fill-rule:nonzero;stroke:none;display:inline"
         id="path6727"
         sodipodi:cx="232.41072"
         sodipodi:cy="164.95146"
         sodipodi:rx="2.5"
         sodipodi:ry="4.0178571"
         d="m 234.91072,164.95146 c 0,2.219 -1.11929,4.01786 -2.5,4.01786 -1.38071,0 -2.5,-1.79886 -2.5,-4.01786 0,-2.219 1.11929,-4.01786 2.5,-4.01786 1.38071,0 2.5,1.79886 2.5,4.01786 z"
         transform="matrix(0.65020464,0.46809179,-0.46809179,0.65020464,838.45501,145.92122)"
         inkscape:transform-center-x="1.8904937"
         inkscape:transform-center-y="2.0894931" />
      <path
         d="m 234.91072,164.95146 c 0,2.219 -1.11929,4.01786 -2.5,4.01786 -1.38071,0 -2.5,-1.79886 -2.5,-4.01786 0,-2.219 1.11929,-4.01786 2.5,-4.01786 1.38071,0 2.5,1.79886 2.5,4.01786 z"
         sodipodi:ry="4.0178571"
         sodipodi:rx="2.5"
         sodipodi:cy="164.95146"
         sodipodi:cx="232.41072"
         id="path6729"
         style="fill:#000000;fill-opacity:1;fill-rule:nonzero;stroke:none;display:inline"
         sodipodi:type="arc"
         transform="matrix(0.69088569,0.40565128,-0.40565128,0.69088569,825.15767,153.96181)" />
      <path
         transform="matrix(0.51137747,0.61674069,-0.61674069,0.51137747,905.92178,138.49833)"
         sodipodi:type="arc"
         style="fill:#000000;fill-opacity:1;fill-rule:nonzero;stroke:none;display:inline"
         id="path6731"
         sodipodi:cx="232.41072"
         sodipodi:cy="164.95146"
         sodipodi:rx="2.5"
         sodipodi:ry="4.0178571"
         d="m 234.91072,164.95146 c 0,2.219 -1.11929,4.01786 -2.5,4.01786 -1.38071,0 -2.5,-1.79886 -2.5,-4.01786 0,-2.219 1.11929,-4.01786 2.5,-4.01786 1.38071,0 2.5,1.79886 2.5,4.01786 z"
         inkscape:transform-center-x="0.89549703"
         inkscape:transform-center-y="1.9899934" />
      <path
         inkscape:transform-center-y="1.9899934"
         inkscape:transform-center-x="0.89549703"
         d="m 234.91072,164.95146 c 0,2.219 -1.11929,4.01786 -2.5,4.01786 -1.38071,0 -2.5,-1.79886 -2.5,-4.01786 0,-2.219 1.11929,-4.01786 2.5,-4.01786 1.38071,0 2.5,1.79886 2.5,4.01786 z"
         sodipodi:ry="4.0178571"
         sodipodi:rx="2.5"
         sodipodi:cy="164.95146"
         sodipodi:cx="232.41072"
         id="path6733"
         style="fill:#000000;fill-opacity:1;fill-rule:nonzero;stroke:none;display:inline"
         sodipodi:type="arc"
         transform="matrix(0.51137747,0.61674069,-0.61674069,0.51137747,906.63923,144.55677)" />
    </g>
    <g
       style="stroke:none;display:inline;enable-background:new"
       id="g6735"
       transform="matrix(0.45818629,-0.61255328,-0.61255328,-0.45818629,332.79298,1613.6086)">
      <path
         sodipodi:nodetypes="sssssss"
         inkscape:connector-curvature="0"
         id="path6737"
         d="m 916.67732,368.71588 c 2.15378,1.53691 1.28558,3.96732 1.01799,6.59966 -0.2844,2.79762 -0.18592,8.17142 -2.98576,8.43313 -2.74933,0.25699 -1.6739,-5.21197 -3.8928,-6.85556 -2.26146,-1.67514 -8.18493,0.32115 -8.74491,-2.43688 -0.54107,-2.66484 3.83373,-4.06177 6.32477,-5.15211 2.48042,-1.08569 6.07671,-2.16098 8.28071,-0.58824 z"
         inkscape:transform-center-y="0.62285292"
         inkscape:transform-center-x="2.2694014"
         style="fill:#000000;fill-opacity:1;fill-rule:nonzero;stroke:none;display:inline" />
      <path
         inkscape:transform-center-y="2.0894931"
         inkscape:transform-center-x="1.8904937"
         transform="matrix(0.65020464,0.46809179,-0.46809179,0.65020464,838.45501,145.92122)"
         d="m 234.91072,164.95146 c 0,2.219 -1.11929,4.01786 -2.5,4.01786 -1.38071,0 -2.5,-1.79886 -2.5,-4.01786 0,-2.219 1.11929,-4.01786 2.5,-4.01786 1.38071,0 2.5,1.79886 2.5,4.01786 z"
         sodipodi:ry="4.0178571"
         sodipodi:rx="2.5"
         sodipodi:cy="164.95146"
         sodipodi:cx="232.41072"
         id="path6739"
         style="fill:#000000;fill-opacity:1;fill-rule:nonzero;stroke:none;display:inline"
         sodipodi:type="arc" />
      <path
         transform="matrix(0.69088569,0.40565128,-0.40565128,0.69088569,825.15767,153.96181)"
         sodipodi:type="arc"
         style="fill:#000000;fill-opacity:1;fill-rule:nonzero;stroke:none;display:inline"
         id="path6741"
         sodipodi:cx="232.41072"
         sodipodi:cy="164.95146"
         sodipodi:rx="2.5"
         sodipodi:ry="4.0178571"
         d="m 234.91072,164.95146 c 0,2.219 -1.11929,4.01786 -2.5,4.01786 -1.38071,0 -2.5,-1.79886 -2.5,-4.01786 0,-2.219 1.11929,-4.01786 2.5,-4.01786 1.38071,0 2.5,1.79886 2.5,4.01786 z" />
      <path
         inkscape:transform-center-y="1.9899934"
         inkscape:transform-center-x="0.89549703"
         d="m 234.91072,164.95146 c 0,2.219 -1.11929,4.01786 -2.5,4.01786 -1.38071,0 -2.5,-1.79886 -2.5,-4.01786 0,-2.219 1.11929,-4.01786 2.5,-4.01786 1.38071,0 2.5,1.79886 2.5,4.01786 z"
         sodipodi:ry="4.0178571"
         sodipodi:rx="2.5"
         sodipodi:cy="164.95146"
         sodipodi:cx="232.41072"
         id="path6743"
         style="fill:#000000;fill-opacity:1;fill-rule:nonzero;stroke:none;display:inline"
         sodipodi:type="arc"
         transform="matrix(0.51137747,0.61674069,-0.61674069,0.51137747,905.92178,138.49833)" />
      <path
         transform="matrix(0.51137747,0.61674069,-0.61674069,0.51137747,906.63923,144.55677)"
         sodipodi:type="arc"
         style="fill:#000000;fill-opacity:1;fill-rule:nonzero;stroke:none;display:inline"
         id="path6745"
         sodipodi:cx="232.41072"
         sodipodi:cy="164.95146"
         sodipodi:rx="2.5"
         sodipodi:ry="4.0178571"
         d="m 234.91072,164.95146 c 0,2.219 -1.11929,4.01786 -2.5,4.01786 -1.38071,0 -2.5,-1.79886 -2.5,-4.01786 0,-2.219 1.11929,-4.01786 2.5,-4.01786 1.38071,0 2.5,1.79886 2.5,4.01786 z"
         inkscape:transform-center-x="0.89549703"
         inkscape:transform-center-y="1.9899934" />
    </g>
    <g
       transform="matrix(0.45818629,-0.61255328,-0.61255328,-0.45818629,117.8663,1609.9188)"
       id="g6747"
       style="stroke:none;display:inline;enable-background:new">
      <path
         style="fill:#000000;fill-opacity:1;fill-rule:nonzero;stroke:none;display:inline"
         inkscape:transform-center-x="2.2694014"
         inkscape:transform-center-y="0.62285292"
         d="m 916.67732,368.71588 c 2.15378,1.53691 1.28558,3.96732 1.01799,6.59966 -0.2844,2.79762 -0.18592,8.17142 -2.98576,8.43313 -2.74933,0.25699 -1.6739,-5.21197 -3.8928,-6.85556 -2.26146,-1.67514 -8.18493,0.32115 -8.74491,-2.43688 -0.54107,-2.66484 3.83373,-4.06177 6.32477,-5.15211 2.48042,-1.08569 6.07671,-2.16098 8.28071,-0.58824 z"
         id="path6749"
         inkscape:connector-curvature="0"
         sodipodi:nodetypes="sssssss" />
      <path
         sodipodi:type="arc"
         style="fill:#000000;fill-opacity:1;fill-rule:nonzero;stroke:none;display:inline"
         id="path6751"
         sodipodi:cx="232.41072"
         sodipodi:cy="164.95146"
         sodipodi:rx="2.5"
         sodipodi:ry="4.0178571"
         d="m 234.91072,164.95146 c 0,2.219 -1.11929,4.01786 -2.5,4.01786 -1.38071,0 -2.5,-1.79886 -2.5,-4.01786 0,-2.219 1.11929,-4.01786 2.5,-4.01786 1.38071,0 2.5,1.79886 2.5,4.01786 z"
         transform="matrix(0.65020464,0.46809179,-0.46809179,0.65020464,838.45501,145.92122)"
         inkscape:transform-center-x="1.8904937"
         inkscape:transform-center-y="2.0894931" />
      <path
         d="m 234.91072,164.95146 c 0,2.219 -1.11929,4.01786 -2.5,4.01786 -1.38071,0 -2.5,-1.79886 -2.5,-4.01786 0,-2.219 1.11929,-4.01786 2.5,-4.01786 1.38071,0 2.5,1.79886 2.5,4.01786 z"
         sodipodi:ry="4.0178571"
         sodipodi:rx="2.5"
         sodipodi:cy="164.95146"
         sodipodi:cx="232.41072"
         id="path6753"
         style="fill:#000000;fill-opacity:1;fill-rule:nonzero;stroke:none;display:inline"
         sodipodi:type="arc"
         transform="matrix(0.69088569,0.40565128,-0.40565128,0.69088569,825.15767,153.96181)" />
      <path
         transform="matrix(0.51137747,0.61674069,-0.61674069,0.51137747,905.92178,138.49833)"
         sodipodi:type="arc"
         style="fill:#000000;fill-opacity:1;fill-rule:nonzero;stroke:none;display:inline"
         id="path6755"
         sodipodi:cx="232.41072"
         sodipodi:cy="164.95146"
         sodipodi:rx="2.5"
         sodipodi:ry="4.0178571"
         d="m 234.91072,164.95146 c 0,2.219 -1.11929,4.01786 -2.5,4.01786 -1.38071,0 -2.5,-1.79886 -2.5,-4.01786 0,-2.219 1.11929,-4.01786 2.5,-4.01786 1.38071,0 2.5,1.79886 2.5,4.01786 z"
         inkscape:transform-center-x="0.89549703"
         inkscape:transform-center-y="1.9899934" />
      <path
         inkscape:transform-center-y="1.9899934"
         inkscape:transform-center-x="0.89549703"
         d="m 234.91072,164.95146 c 0,2.219 -1.11929,4.01786 -2.5,4.01786 -1.38071,0 -2.5,-1.79886 -2.5,-4.01786 0,-2.219 1.11929,-4.01786 2.5,-4.01786 1.38071,0 2.5,1.79886 2.5,4.01786 z"
         sodipodi:ry="4.0178571"
         sodipodi:rx="2.5"
         sodipodi:cy="164.95146"
         sodipodi:cx="232.41072"
         id="path6757"
         style="fill:#000000;fill-opacity:1;fill-rule:nonzero;stroke:none;display:inline"
         sodipodi:type="arc"
         transform="matrix(0.51137747,0.61674069,-0.61674069,0.51137747,906.63923,144.55677)" />
    </g>
    <g
       style="stroke:none;display:inline;enable-background:new"
       id="g6759"
       transform="matrix(0.45818629,-0.61255328,-0.61255328,-0.45818629,248.85165,1428.1997)">
      <path
         sodipodi:nodetypes="sssssss"
         inkscape:connector-curvature="0"
         id="path6761"
         d="m 916.67732,368.71588 c 2.15378,1.53691 1.28558,3.96732 1.01799,6.59966 -0.2844,2.79762 -0.18592,8.17142 -2.98576,8.43313 -2.74933,0.25699 -1.6739,-5.21197 -3.8928,-6.85556 -2.26146,-1.67514 -8.18493,0.32115 -8.74491,-2.43688 -0.54107,-2.66484 3.83373,-4.06177 6.32477,-5.15211 2.48042,-1.08569 6.07671,-2.16098 8.28071,-0.58824 z"
         inkscape:transform-center-y="0.62285292"
         inkscape:transform-center-x="2.2694014"
         style="fill:#000000;fill-opacity:1;fill-rule:nonzero;stroke:none;display:inline" />
      <path
         inkscape:transform-center-y="2.0894931"
         inkscape:transform-center-x="1.8904937"
         transform="matrix(0.65020464,0.46809179,-0.46809179,0.65020464,838.45501,145.92122)"
         d="m 234.91072,164.95146 c 0,2.219 -1.11929,4.01786 -2.5,4.01786 -1.38071,0 -2.5,-1.79886 -2.5,-4.01786 0,-2.219 1.11929,-4.01786 2.5,-4.01786 1.38071,0 2.5,1.79886 2.5,4.01786 z"
         sodipodi:ry="4.0178571"
         sodipodi:rx="2.5"
         sodipodi:cy="164.95146"
         sodipodi:cx="232.41072"
         id="path6763"
         style="fill:#000000;fill-opacity:1;fill-rule:nonzero;stroke:none;display:inline"
         sodipodi:type="arc" />
      <path
         transform="matrix(0.69088569,0.40565128,-0.40565128,0.69088569,825.15767,153.96181)"
         sodipodi:type="arc"
         style="fill:#000000;fill-opacity:1;fill-rule:nonzero;stroke:none;display:inline"
         id="path6765"
         sodipodi:cx="232.41072"
         sodipodi:cy="164.95146"
         sodipodi:rx="2.5"
         sodipodi:ry="4.0178571"
         d="m 234.91072,164.95146 c 0,2.219 -1.11929,4.01786 -2.5,4.01786 -1.38071,0 -2.5,-1.79886 -2.5,-4.01786 0,-2.219 1.11929,-4.01786 2.5,-4.01786 1.38071,0 2.5,1.79886 2.5,4.01786 z" />
      <path
         inkscape:transform-center-y="1.9899934"
         inkscape:transform-center-x="0.89549703"
         d="m 234.91072,164.95146 c 0,2.219 -1.11929,4.01786 -2.5,4.01786 -1.38071,0 -2.5,-1.79886 -2.5,-4.01786 0,-2.219 1.11929,-4.01786 2.5,-4.01786 1.38071,0 2.5,1.79886 2.5,4.01786 z"
         sodipodi:ry="4.0178571"
         sodipodi:rx="2.5"
         sodipodi:cy="164.95146"
         sodipodi:cx="232.41072"
         id="path6767"
         style="fill:#000000;fill-opacity:1;fill-rule:nonzero;stroke:none;display:inline"
         sodipodi:type="arc"
         transform="matrix(0.51137747,0.61674069,-0.61674069,0.51137747,905.92178,138.49833)" />
      <path
         transform="matrix(0.51137747,0.61674069,-0.61674069,0.51137747,906.63923,144.55677)"
         sodipodi:type="arc"
         style="fill:#000000;fill-opacity:1;fill-rule:nonzero;stroke:none;display:inline"
         id="path6769"
         sodipodi:cx="232.41072"
         sodipodi:cy="164.95146"
         sodipodi:rx="2.5"
         sodipodi:ry="4.0178571"
         d="m 234.91072,164.95146 c 0,2.219 -1.11929,4.01786 -2.5,4.01786 -1.38071,0 -2.5,-1.79886 -2.5,-4.01786 0,-2.219 1.11929,-4.01786 2.5,-4.01786 1.38071,0 2.5,1.79886 2.5,4.01786 z"
         inkscape:transform-center-x="0.89549703"
         inkscape:transform-center-y="1.9899934" />
    </g>
    <g
       transform="matrix(0.61255328,0.45818629,0.45818629,-0.61255328,-271.61485,316.82903)"
       id="g6771"
       style="stroke:none;display:inline;enable-background:new">
      <path
         style="fill:#000000;fill-opacity:1;fill-rule:nonzero;stroke:none;display:inline"
         inkscape:transform-center-x="2.2694014"
         inkscape:transform-center-y="0.62285292"
         d="m 916.67732,368.71588 c 2.15378,1.53691 1.28558,3.96732 1.01799,6.59966 -0.2844,2.79762 -0.18592,8.17142 -2.98576,8.43313 -2.74933,0.25699 -1.6739,-5.21197 -3.8928,-6.85556 -2.26146,-1.67514 -8.18493,0.32115 -8.74491,-2.43688 -0.54107,-2.66484 3.83373,-4.06177 6.32477,-5.15211 2.48042,-1.08569 6.07671,-2.16098 8.28071,-0.58824 z"
         id="path6773"
         inkscape:connector-curvature="0"
         sodipodi:nodetypes="sssssss" />
      <path
         sodipodi:type="arc"
         style="fill:#000000;fill-opacity:1;fill-rule:nonzero;stroke:none;display:inline"
         id="path6775"
         sodipodi:cx="232.41072"
         sodipodi:cy="164.95146"
         sodipodi:rx="2.5"
         sodipodi:ry="4.0178571"
         d="m 234.91072,164.95146 c 0,2.219 -1.11929,4.01786 -2.5,4.01786 -1.38071,0 -2.5,-1.79886 -2.5,-4.01786 0,-2.219 1.11929,-4.01786 2.5,-4.01786 1.38071,0 2.5,1.79886 2.5,4.01786 z"
         transform="matrix(0.65020464,0.46809179,-0.46809179,0.65020464,838.45501,145.92122)"
         inkscape:transform-center-x="1.8904937"
         inkscape:transform-center-y="2.0894931" />
      <path
         d="m 234.91072,164.95146 c 0,2.219 -1.11929,4.01786 -2.5,4.01786 -1.38071,0 -2.5,-1.79886 -2.5,-4.01786 0,-2.219 1.11929,-4.01786 2.5,-4.01786 1.38071,0 2.5,1.79886 2.5,4.01786 z"
         sodipodi:ry="4.0178571"
         sodipodi:rx="2.5"
         sodipodi:cy="164.95146"
         sodipodi:cx="232.41072"
         id="path6777"
         style="fill:#000000;fill-opacity:1;fill-rule:nonzero;stroke:none;display:inline"
         sodipodi:type="arc"
         transform="matrix(0.69088569,0.40565128,-0.40565128,0.69088569,825.15767,153.96181)" />
      <path
         transform="matrix(0.51137747,0.61674069,-0.61674069,0.51137747,905.92178,138.49833)"
         sodipodi:type="arc"
         style="fill:#000000;fill-opacity:1;fill-rule:nonzero;stroke:none;display:inline"
         id="path6779"
         sodipodi:cx="232.41072"
         sodipodi:cy="164.95146"
         sodipodi:rx="2.5"
         sodipodi:ry="4.0178571"
         d="m 234.91072,164.95146 c 0,2.219 -1.11929,4.01786 -2.5,4.01786 -1.38071,0 -2.5,-1.79886 -2.5,-4.01786 0,-2.219 1.11929,-4.01786 2.5,-4.01786 1.38071,0 2.5,1.79886 2.5,4.01786 z"
         inkscape:transform-center-x="0.89549703"
         inkscape:transform-center-y="1.9899934" />
      <path
         inkscape:transform-center-y="1.9899934"
         inkscape:transform-center-x="0.89549703"
         d="m 234.91072,164.95146 c 0,2.219 -1.11929,4.01786 -2.5,4.01786 -1.38071,0 -2.5,-1.79886 -2.5,-4.01786 0,-2.219 1.11929,-4.01786 2.5,-4.01786 1.38071,0 2.5,1.79886 2.5,4.01786 z"
         sodipodi:ry="4.0178571"
         sodipodi:rx="2.5"
         sodipodi:cy="164.95146"
         sodipodi:cx="232.41072"
         id="path6781"
         style="fill:#000000;fill-opacity:1;fill-rule:nonzero;stroke:none;display:inline"
         sodipodi:type="arc"
         transform="matrix(0.51137747,0.61674069,-0.61674069,0.51137747,906.63923,144.55677)" />
    </g>
    <g
       style="stroke:none;display:inline;enable-background:new"
       id="g6783"
       transform="matrix(-0.45818629,0.61255328,0.61255328,0.45818629,766.88364,-196.25802)">
      <path
         sodipodi:nodetypes="sssssss"
         inkscape:connector-curvature="0"
         id="path6785"
         d="m 916.67732,368.71588 c 2.15378,1.53691 1.28558,3.96732 1.01799,6.59966 -0.2844,2.79762 -0.18592,8.17142 -2.98576,8.43313 -2.74933,0.25699 -1.6739,-5.21197 -3.8928,-6.85556 -2.26146,-1.67514 -8.18493,0.32115 -8.74491,-2.43688 -0.54107,-2.66484 3.83373,-4.06177 6.32477,-5.15211 2.48042,-1.08569 6.07671,-2.16098 8.28071,-0.58824 z"
         inkscape:transform-center-y="0.62285292"
         inkscape:transform-center-x="2.2694014"
         style="fill:#000000;fill-opacity:1;fill-rule:nonzero;stroke:none;display:inline" />
      <path
         inkscape:transform-center-y="2.0894931"
         inkscape:transform-center-x="1.8904937"
         transform="matrix(0.65020464,0.46809179,-0.46809179,0.65020464,838.45501,145.92122)"
         d="m 234.91072,164.95146 c 0,2.219 -1.11929,4.01786 -2.5,4.01786 -1.38071,0 -2.5,-1.79886 -2.5,-4.01786 0,-2.219 1.11929,-4.01786 2.5,-4.01786 1.38071,0 2.5,1.79886 2.5,4.01786 z"
         sodipodi:ry="4.0178571"
         sodipodi:rx="2.5"
         sodipodi:cy="164.95146"
         sodipodi:cx="232.41072"
         id="path6787"
         style="fill:#000000;fill-opacity:1;fill-rule:nonzero;stroke:none;display:inline"
         sodipodi:type="arc" />
      <path
         transform="matrix(0.69088569,0.40565128,-0.40565128,0.69088569,825.15767,153.96181)"
         sodipodi:type="arc"
         style="fill:#000000;fill-opacity:1;fill-rule:nonzero;stroke:none;display:inline"
         id="path6789"
         sodipodi:cx="232.41072"
         sodipodi:cy="164.95146"
         sodipodi:rx="2.5"
         sodipodi:ry="4.0178571"
         d="m 234.91072,164.95146 c 0,2.219 -1.11929,4.01786 -2.5,4.01786 -1.38071,0 -2.5,-1.79886 -2.5,-4.01786 0,-2.219 1.11929,-4.01786 2.5,-4.01786 1.38071,0 2.5,1.79886 2.5,4.01786 z" />
      <path
         inkscape:transform-center-y="1.9899934"
         inkscape:transform-center-x="0.89549703"
         d="m 234.91072,164.95146 c 0,2.219 -1.11929,4.01786 -2.5,4.01786 -1.38071,0 -2.5,-1.79886 -2.5,-4.01786 0,-2.219 1.11929,-4.01786 2.5,-4.01786 1.38071,0 2.5,1.79886 2.5,4.01786 z"
         sodipodi:ry="4.0178571"
         sodipodi:rx="2.5"
         sodipodi:cy="164.95146"
         sodipodi:cx="232.41072"
         id="path6791"
         style="fill:#000000;fill-opacity:1;fill-rule:nonzero;stroke:none;display:inline"
         sodipodi:type="arc"
         transform="matrix(0.51137747,0.61674069,-0.61674069,0.51137747,905.92178,138.49833)" />
      <path
         transform="matrix(0.51137747,0.61674069,-0.61674069,0.51137747,906.63923,144.55677)"
         sodipodi:type="arc"
         style="fill:#000000;fill-opacity:1;fill-rule:nonzero;stroke:none;display:inline"
         id="path6793"
         sodipodi:cx="232.41072"
         sodipodi:cy="164.95146"
         sodipodi:rx="2.5"
         sodipodi:ry="4.0178571"
         d="m 234.91072,164.95146 c 0,2.219 -1.11929,4.01786 -2.5,4.01786 -1.38071,0 -2.5,-1.79886 -2.5,-4.01786 0,-2.219 1.11929,-4.01786 2.5,-4.01786 1.38071,0 2.5,1.79886 2.5,4.01786 z"
         inkscape:transform-center-x="0.89549703"
         inkscape:transform-center-y="1.9899934" />
    </g>
    <g
       transform="matrix(0.50868258,-0.21621446,0.21621446,0.50868258,130.27268,684.06903)"
       style="display:inline"
       id="g3066">
      <path
         style="fill:none;stroke:#000000;stroke-width:6;stroke-linecap:round;stroke-linejoin:round;stroke-miterlimit:4;stroke-opacity:1;stroke-dasharray:none;stroke-dashoffset:0;marker:none;visibility:visible;display:inline;overflow:visible;enable-background:accumulate"
         d="m 15.454482,21.608133 4.87901,25.876177 c -3.778648,6.361791 -5.924512,13.629688 -5.924512,21.345668 0,25.01683 22.513356,45.305092 50.271226,45.305092 27.757872,0 50.314794,-20.288261 50.314784,-45.305092 0,-7.474484 -2.05884,-14.518621 -5.61957,-20.735792 l 4.87901,-25.832614 -20.56154,9.540207 c -8.195927,-5.225134 -18.21698,-8.320455 -29.012684,-8.320455 -10.481235,0 -20.213468,2.890921 -28.272119,7.841266 L 15.454482,21.608133 z"
         id="path3612"
         inkscape:connector-curvature="0" />
      <path
         inkscape:connector-curvature="0"
         id="path3478"
         d="m 15.454482,21.608133 c 1.626337,8.625392 3.252673,17.250785 4.87901,25.876177 -8.772275,14.196862 -7.638908,33.544504 2.662648,46.674206 13.086261,17.591374 37.851965,24.114154 58.392455,17.414434 17.368632,-5.26348 32.061545,-20.72243 33.459495,-39.257753 0.74627,-8.387427 -1.26553,-16.944078 -5.47267,-24.221011 1.62634,-8.610871 3.25267,-17.221743 4.87901,-25.832614 -6.85385,3.180069 -13.70769,6.360138 -20.56154,9.540207 C 76.719456,20.889809 53.563344,20.706171 36.408087,31.32259 29.423552,28.084438 22.439017,24.846285 15.454482,21.608133 z"
         style="fill:#000000;fill-opacity:1;fill-rule:nonzero;stroke:#ffffff;stroke-width:3.97822046;stroke-linecap:round;stroke-linejoin:round;stroke-miterlimit:4;stroke-opacity:1;stroke-dashoffset:0;marker:none;visibility:visible;display:inline;overflow:visible;enable-background:accumulate" />
      <path
         transform="matrix(1.9387847,0.8723032,-0.8723032,1.9387847,-50.299173,-95.028718)"
         d="m 76,48 c 0,2.209139 -1.790861,4 -4,4 -2.209139,0 -4,-1.790861 -4,-4 0,-2.209139 1.790861,-4 4,-4 2.209139,0 4,1.790861 4,4 z"
         sodipodi:ry="4"
         sodipodi:rx="4"
         sodipodi:cy="48"
         sodipodi:cx="72"
         id="path3183"
         style="fill:#ffffff;fill-opacity:1;fill-rule:nonzero;stroke:none;stroke-width:3;marker:none;visibility:visible;display:inline;overflow:visible;enable-background:accumulate"
         sodipodi:type="arc" />
      <path
         sodipodi:type="arc"
         style="fill:#2d5016;fill-opacity:1;fill-rule:nonzero;stroke:none;stroke-width:3;marker:none;visibility:visible;display:inline;overflow:visible;enable-background:accumulate"
         id="path3185"
         sodipodi:cx="72"
         sodipodi:cy="48"
         sodipodi:rx="4"
         sodipodi:ry="4"
         d="m 76,48 c 0,2.209139 -1.790861,4 -4,4 -2.209139,0 -4,-1.790861 -4,-4 0,-2.209139 1.790861,-4 4,-4 2.209139,0 4,1.790861 4,4 z"
         transform="matrix(-0.50940508,-1.1784827,-0.37394236,1.4651542,102.09704,75.469076)"
         inkscape:transform-center-x="-17.248357" />
      <path
         sodipodi:type="arc"
         style="fill:#ffffff;fill-opacity:1;fill-rule:nonzero;stroke:none;stroke-width:3;marker:none;visibility:visible;display:inline;overflow:visible;enable-background:accumulate"
         id="path3195"
         sodipodi:cx="72"
         sodipodi:cy="48"
         sodipodi:rx="4"
         sodipodi:ry="4"
         d="m 76,48 c 0,2.209139 -1.790861,4 -4,4 -2.209139,0 -4,-1.790861 -4,-4 0,-2.209139 1.790861,-4 4,-4 2.209139,0 4,1.790861 4,4 z"
         transform="matrix(1.9387847,0.8723032,-0.8723032,1.9387847,-15.389114,-95.100023)" />
      <path
         inkscape:connector-curvature="0"
         id="path3588"
         d="m 34.858034,84.892618 c 0.985179,4.551219 5.041638,7.522781 8.813354,9.784058 4.399995,2.526716 10.065779,3.722877 14.779269,1.315561 6.445027,-3.023509 10.949382,-9.153658 13.446553,-15.658911 -1.227485,-1.660389 -4.61023,-0.659096 -6.670563,-1.126845 -2.983501,-0.07505 -5.969841,0.05701 -8.940783,0.332023 2.476761,6.652943 7.015305,12.719707 13.182535,16.345249 3.599812,1.984909 8.030916,1.783501 11.681658,0.04807 4.551151,-2.007104 8.539133,-5.995909 9.399481,-11.039203"
         style="fill:#000000;fill-opacity:1;fill-rule:nonzero;stroke:#ffffff;stroke-width:2.78794599;stroke-linecap:round;stroke-linejoin:round;stroke-miterlimit:4;stroke-opacity:1;stroke-dasharray:none" />
      <path
         style="fill:none;stroke:#000000;stroke-width:0.91597867;stroke-linecap:butt;stroke-linejoin:miter;stroke-miterlimit:4;stroke-opacity:1;stroke-dasharray:none"
         d="M 29.321452,79.681716 -2.8395775,71.336133"
         id="path3853"
         inkscape:connector-curvature="0" />
      <path
         style="fill:none;stroke:#000000;stroke-width:0.91597867;stroke-linecap:butt;stroke-linejoin:miter;stroke-miterlimit:4;stroke-opacity:1;stroke-dasharray:none;display:inline"
         d="M 96.493223,79.376391 128.65425,71.030808"
         id="path3853-7"
         inkscape:connector-curvature="0"
         inkscape:transform-center-y="-81.944445" />
      <path
         style="fill:none;stroke:#000000;stroke-width:0.91597867;stroke-linecap:butt;stroke-linejoin:miter;stroke-miterlimit:4;stroke-opacity:1;stroke-dasharray:none;display:inline"
         d="M 29.487586,84.672661 -3.7384953,84.583339"
         id="path3853-3"
         inkscape:connector-curvature="0" />
      <path
         style="fill:none;stroke:#000000;stroke-width:0.91597867;stroke-linecap:butt;stroke-linejoin:miter;stroke-miterlimit:4;stroke-opacity:1;stroke-dasharray:none;display:inline"
         d="M 129.83814,85.405445 96.612059,85.316125"
         id="path3853-3-6"
         inkscape:connector-curvature="0"
         inkscape:transform-center-x="707.22222"
         inkscape:transform-center-y="54.583335" />
      <path
         style="fill:none;stroke:#000000;stroke-width:0.91597867;stroke-linecap:butt;stroke-linejoin:miter;stroke-miterlimit:4;stroke-opacity:1;stroke-dasharray:none;display:inline"
         d="M 29.321448,90.974702 -2.839577,99.320281"
         id="path3853-1"
         inkscape:connector-curvature="0" />
      <path
         style="fill:none;stroke:#000000;stroke-width:0.91597867;stroke-linecap:butt;stroke-linejoin:miter;stroke-miterlimit:4;stroke-opacity:1;stroke-dasharray:none;display:inline"
         d="m 96.574644,90.48618 32.161026,8.345579"
         id="path3853-1-8"
         inkscape:connector-curvature="0" />
      <path
         sodipodi:type="arc"
         style="fill:#2d5016;fill-opacity:1;fill-rule:nonzero;stroke:none;stroke-width:3;marker:none;visibility:visible;display:inline;overflow:visible;enable-background:accumulate"
         id="path3185-9"
         sodipodi:cx="72"
         sodipodi:cy="48"
         sodipodi:rx="4"
         sodipodi:ry="4"
         d="m 76,48 c 0,2.209139 -1.790861,4 -4,4 -2.209139,0 -4,-1.790861 -4,-4 0,-2.209139 1.790861,-4 4,-4 2.209139,0 4,1.790861 4,4 z"
         transform="matrix(-0.50940509,-1.1784827,-0.37394236,1.4651542,136.70068,75.672627)"
         inkscape:transform-center-x="-2.5278572" />
      <path
         inkscape:connector-curvature="0"
         id="path4407"
         d="m 63.76225,90.30715 c -2.455747,-3.222904 -5.719477,-6.370161 -6.08066,-10.629063 4.426331,0.138175 8.852663,0.276349 13.278994,0.414524 -0.930943,4.205298 -3.923375,7.586648 -7.198334,10.214539 z"
         style="fill:#ffaaee;stroke:#000000;stroke-width:0.14655659px;stroke-linecap:butt;stroke-linejoin:miter;stroke-opacity:1" />
    </g>
    <g
       transform="matrix(-0.29808803,0,0,0.29808803,191.131,356.74543)"
       id="g3214">
      <path
         sodipodi:nodetypes="asasa"
         transform="translate(0,427.36221)"
         inkscape:connector-curvature="0"
         id="path3216"
         d="m 196.97975,619.19162 c -11.60137,-9.89292 4.04618,-44.25157 20.45559,-40.91118 19.89949,4.05086 33.09845,29.71536 21.97081,40.15357 -6.32282,5.93108 -16.55934,-14.08766 -21.97165,-13.9158 -5.26442,0.16717 -14.06982,20.11808 -20.45475,14.67341 z"
         style="fill:#000000;stroke:#000000;stroke-width:1px;stroke-linecap:butt;stroke-linejoin:miter;stroke-opacity:1" />
      <path
         inkscape:connector-curvature="0"
         id="path3218"
         d="m 186.97901,992.08878 c 0.34461,1.46158 0.54809,2.79548 0.6942,4.08778 -0.45958,0.46334 -0.59414,1.59549 -0.28483,2.83575 0.15847,0.63544 0.40593,1.19569 0.69561,1.61549 0.0107,0.1159 0.0268,0.2318 0.0381,0.3482 -0.81436,1.0739 -1.0868,2.9459 -0.59603,4.9138 0.6902,2.7675 2.63304,4.6613 4.34139,4.2353 1.70834,-0.4261 2.53435,-3.0104 1.84416,-5.778 -0.58868,-2.3604 -2.09862,-4.084 -3.58741,-4.2769 0.0505,-0.49681 0.005,-1.0881 -0.14829,-1.7032 -0.34367,-1.37806 -1.11065,-2.39385 -1.78972,-2.41596 -0.44228,-1.20313 -0.861,-2.46705 -1.20715,-3.86227 z"
         style="fill:#000000;fill-opacity:1;fill-rule:nonzero;stroke:none" />
      <path
         style="fill:#000000;fill-opacity:1;fill-rule:nonzero;stroke:none"
         d="m 197.69329,980.6602 c 0.34461,1.46158 0.54809,2.79548 0.6942,4.08778 -0.45958,0.46334 -0.59414,1.59549 -0.28483,2.83575 0.15847,0.63544 0.40593,1.19569 0.69561,1.61549 0.0107,0.1159 0.0268,0.2318 0.0381,0.3482 -0.81436,1.0739 -1.0868,2.9459 -0.59603,4.9138 0.6902,2.7675 2.63304,4.6613 4.34139,4.2353 1.70834,-0.4261 2.53435,-3.0104 1.84416,-5.778 -0.58868,-2.3604 -2.09862,-4.084 -3.58741,-4.2769 0.0505,-0.49681 0.005,-1.0881 -0.14829,-1.7032 -0.34367,-1.37806 -1.11065,-2.39385 -1.78972,-2.41596 -0.44228,-1.20313 -0.861,-2.46705 -1.20715,-3.86227 z"
         id="path3220"
         inkscape:connector-curvature="0" />
      <path
         inkscape:connector-curvature="0"
         id="path3222"
         d="m 211.979,979.4102 c 0.34461,1.46158 0.54809,2.79548 0.6942,4.08778 -0.45958,0.46334 -0.59414,1.59549 -0.28483,2.83575 0.15847,0.63544 0.40593,1.19569 0.69561,1.61549 0.0107,0.1159 0.0268,0.2318 0.0381,0.3482 -0.81436,1.0739 -1.0868,2.9459 -0.59603,4.9138 0.6902,2.7675 2.63304,4.6613 4.34139,4.2353 1.70834,-0.4261 2.53435,-3.0104 1.84416,-5.778 -0.58868,-2.3604 -2.09862,-4.084 -3.58741,-4.2769 0.0505,-0.49681 0.005,-1.0881 -0.14829,-1.7032 -0.34367,-1.37806 -1.11065,-2.39385 -1.78972,-2.41596 -0.44228,-1.20313 -0.861,-2.46705 -1.20715,-3.86227 z"
         style="fill:#000000;fill-opacity:1;fill-rule:nonzero;stroke:none" />
      <path
         style="fill:#000000;fill-opacity:1;fill-rule:nonzero;stroke:none"
         d="m 225.90757,985.83877 c 0.34461,1.46158 0.54809,2.79548 0.6942,4.08778 -0.45958,0.46334 -0.59414,1.59549 -0.28483,2.83575 0.15847,0.63544 0.40593,1.19569 0.69561,1.61549 0.0107,0.1159 0.0268,0.2318 0.0381,0.3482 -0.81436,1.0739 -1.0868,2.9459 -0.59603,4.9138 0.6902,2.76751 2.63304,4.66131 4.34139,4.23531 1.70834,-0.4261 2.53435,-3.0104 1.84416,-5.77801 -0.58868,-2.3604 -2.09862,-4.084 -3.58741,-4.2769 0.0505,-0.49681 0.005,-1.0881 -0.14829,-1.7032 -0.34367,-1.37806 -1.11065,-2.39385 -1.78972,-2.41596 -0.44228,-1.20313 -0.861,-2.46705 -1.20715,-3.86227 z"
         id="path3224"
         inkscape:connector-curvature="0" />
    </g>
    <g
       transform="matrix(0.62397573,0,0,0.62397573,-7.5484936,268.99629)"
       id="g3195">
      <path
         sodipodi:nodetypes="asasa"
         transform="translate(0,427.36221)"
         inkscape:connector-curvature="0"
         id="path3171"
         d="m 196.97975,619.19162 c -11.60137,-9.89292 4.04618,-44.25157 20.45559,-40.91118 19.89949,4.05086 33.09845,29.71536 21.97081,40.15357 -6.32282,5.93108 -16.55934,-14.08766 -21.97165,-13.9158 -5.26442,0.16717 -14.06982,20.11808 -20.45475,14.67341 z"
         style="fill:#000000;stroke:#000000;stroke-width:1px;stroke-linecap:butt;stroke-linejoin:miter;stroke-opacity:1" />
      <path
         inkscape:connector-curvature="0"
         id="path3173"
         d="m 186.97901,992.08878 c 0.34461,1.46158 0.54809,2.79548 0.6942,4.08778 -0.45958,0.46334 -0.59414,1.59549 -0.28483,2.83575 0.15847,0.63544 0.40593,1.19569 0.69561,1.61549 0.0107,0.1159 0.0268,0.2318 0.0381,0.3482 -0.81436,1.0739 -1.0868,2.9459 -0.59603,4.9138 0.6902,2.7675 2.63304,4.6613 4.34139,4.2353 1.70834,-0.4261 2.53435,-3.0104 1.84416,-5.778 -0.58868,-2.3604 -2.09862,-4.084 -3.58741,-4.2769 0.0505,-0.49681 0.005,-1.0881 -0.14829,-1.7032 -0.34367,-1.37806 -1.11065,-2.39385 -1.78972,-2.41596 -0.44228,-1.20313 -0.861,-2.46705 -1.20715,-3.86227 z"
         style="fill:#000000;fill-opacity:1;fill-rule:nonzero;stroke:none" />
      <path
         style="fill:#000000;fill-opacity:1;fill-rule:nonzero;stroke:none"
         d="m 197.69329,980.6602 c 0.34461,1.46158 0.54809,2.79548 0.6942,4.08778 -0.45958,0.46334 -0.59414,1.59549 -0.28483,2.83575 0.15847,0.63544 0.40593,1.19569 0.69561,1.61549 0.0107,0.1159 0.0268,0.2318 0.0381,0.3482 -0.81436,1.0739 -1.0868,2.9459 -0.59603,4.9138 0.6902,2.7675 2.63304,4.6613 4.34139,4.2353 1.70834,-0.4261 2.53435,-3.0104 1.84416,-5.778 -0.58868,-2.3604 -2.09862,-4.084 -3.58741,-4.2769 0.0505,-0.49681 0.005,-1.0881 -0.14829,-1.7032 -0.34367,-1.37806 -1.11065,-2.39385 -1.78972,-2.41596 -0.44228,-1.20313 -0.861,-2.46705 -1.20715,-3.86227 z"
         id="path3181"
         inkscape:connector-curvature="0" />
      <path
         inkscape:connector-curvature="0"
         id="path3184"
         d="m 211.979,979.4102 c 0.34461,1.46158 0.54809,2.79548 0.6942,4.08778 -0.45958,0.46334 -0.59414,1.59549 -0.28483,2.83575 0.15847,0.63544 0.40593,1.19569 0.69561,1.61549 0.0107,0.1159 0.0268,0.2318 0.0381,0.3482 -0.81436,1.0739 -1.0868,2.9459 -0.59603,4.9138 0.6902,2.7675 2.63304,4.6613 4.34139,4.2353 1.70834,-0.4261 2.53435,-3.0104 1.84416,-5.778 -0.58868,-2.3604 -2.09862,-4.084 -3.58741,-4.2769 0.0505,-0.49681 0.005,-1.0881 -0.14829,-1.7032 -0.34367,-1.37806 -1.11065,-2.39385 -1.78972,-2.41596 -0.44228,-1.20313 -0.861,-2.46705 -1.20715,-3.86227 z"
         style="fill:#000000;fill-opacity:1;fill-rule:nonzero;stroke:none" />
      <path
         style="fill:#000000;fill-opacity:1;fill-rule:nonzero;stroke:none"
         d="m 225.90757,985.83877 c 0.34461,1.46158 0.54809,2.79548 0.6942,4.08778 -0.45958,0.46334 -0.59414,1.59549 -0.28483,2.83575 0.15847,0.63544 0.40593,1.19569 0.69561,1.61549 0.0107,0.1159 0.0268,0.2318 0.0381,0.3482 -0.81436,1.0739 -1.0868,2.9459 -0.59603,4.9138 0.6902,2.76751 2.63304,4.66131 4.34139,4.23531 1.70834,-0.4261 2.53435,-3.0104 1.84416,-5.77801 -0.58868,-2.3604 -2.09862,-4.084 -3.58741,-4.2769 0.0505,-0.49681 0.005,-1.0881 -0.14829,-1.7032 -0.34367,-1.37806 -1.11065,-2.39385 -1.78972,-2.41596 -0.44228,-1.20313 -0.861,-2.46705 -1.20715,-3.86227 z"
         id="path3186"
         inkscape:connector-curvature="0" />
    </g>
    <g
       id="g3202"
       transform="matrix(0.62397573,0,0,-0.62397573,98.165791,1480.4764)">
      <path
         style="fill:#000000;stroke:#000000;stroke-width:1px;stroke-linecap:butt;stroke-linejoin:miter;stroke-opacity:1"
         d="m 196.97975,619.19162 c -11.60137,-9.89292 4.04618,-44.25157 20.45559,-40.91118 19.89949,4.05086 33.09845,29.71536 21.97081,40.15357 -6.32282,5.93108 -16.55934,-14.08766 -21.97165,-13.9158 -5.26442,0.16717 -14.06982,20.11808 -20.45475,14.67341 z"
         id="path3204"
         inkscape:connector-curvature="0"
         transform="translate(0,427.36221)"
         sodipodi:nodetypes="asasa" />
      <path
         style="fill:#000000;fill-opacity:1;fill-rule:nonzero;stroke:none"
         d="m 186.97901,992.08878 c 0.34461,1.46158 0.54809,2.79548 0.6942,4.08778 -0.45958,0.46334 -0.59414,1.59549 -0.28483,2.83575 0.15847,0.63544 0.40593,1.19569 0.69561,1.61549 0.0107,0.1159 0.0268,0.2318 0.0381,0.3482 -0.81436,1.0739 -1.0868,2.9459 -0.59603,4.9138 0.6902,2.7675 2.63304,4.6613 4.34139,4.2353 1.70834,-0.4261 2.53435,-3.0104 1.84416,-5.778 -0.58868,-2.3604 -2.09862,-4.084 -3.58741,-4.2769 0.0505,-0.49681 0.005,-1.0881 -0.14829,-1.7032 -0.34367,-1.37806 -1.11065,-2.39385 -1.78972,-2.41596 -0.44228,-1.20313 -0.861,-2.46705 -1.20715,-3.86227 z"
         id="path3206"
         inkscape:connector-curvature="0" />
      <path
         inkscape:connector-curvature="0"
         id="path3208"
         d="m 197.69329,980.6602 c 0.34461,1.46158 0.54809,2.79548 0.6942,4.08778 -0.45958,0.46334 -0.59414,1.59549 -0.28483,2.83575 0.15847,0.63544 0.40593,1.19569 0.69561,1.61549 0.0107,0.1159 0.0268,0.2318 0.0381,0.3482 -0.81436,1.0739 -1.0868,2.9459 -0.59603,4.9138 0.6902,2.7675 2.63304,4.6613 4.34139,4.2353 1.70834,-0.4261 2.53435,-3.0104 1.84416,-5.778 -0.58868,-2.3604 -2.09862,-4.084 -3.58741,-4.2769 0.0505,-0.49681 0.005,-1.0881 -0.14829,-1.7032 -0.34367,-1.37806 -1.11065,-2.39385 -1.78972,-2.41596 -0.44228,-1.20313 -0.861,-2.46705 -1.20715,-3.86227 z"
         style="fill:#000000;fill-opacity:1;fill-rule:nonzero;stroke:none" />
      <path
         style="fill:#000000;fill-opacity:1;fill-rule:nonzero;stroke:none"
         d="m 211.979,979.4102 c 0.34461,1.46158 0.54809,2.79548 0.6942,4.08778 -0.45958,0.46334 -0.59414,1.59549 -0.28483,2.83575 0.15847,0.63544 0.40593,1.19569 0.69561,1.61549 0.0107,0.1159 0.0268,0.2318 0.0381,0.3482 -0.81436,1.0739 -1.0868,2.9459 -0.59603,4.9138 0.6902,2.7675 2.63304,4.6613 4.34139,4.2353 1.70834,-0.4261 2.53435,-3.0104 1.84416,-5.778 -0.58868,-2.3604 -2.09862,-4.084 -3.58741,-4.2769 0.0505,-0.49681 0.005,-1.0881 -0.14829,-1.7032 -0.34367,-1.37806 -1.11065,-2.39385 -1.78972,-2.41596 -0.44228,-1.20313 -0.861,-2.46705 -1.20715,-3.86227 z"
         id="path3210"
         inkscape:connector-curvature="0" />
      <path
         inkscape:connector-curvature="0"
         id="path3212"
         d="m 225.90757,985.83877 c 0.34461,1.46158 0.54809,2.79548 0.6942,4.08778 -0.45958,0.46334 -0.59414,1.59549 -0.28483,2.83575 0.15847,0.63544 0.40593,1.19569 0.69561,1.61549 0.0107,0.1159 0.0268,0.2318 0.0381,0.3482 -0.81436,1.0739 -1.0868,2.9459 -0.59603,4.9138 0.6902,2.76751 2.63304,4.66131 4.34139,4.23531 1.70834,-0.4261 2.53435,-3.0104 1.84416,-5.77801 -0.58868,-2.3604 -2.09862,-4.084 -3.58741,-4.2769 0.0505,-0.49681 0.005,-1.0881 -0.14829,-1.7032 -0.34367,-1.37806 -1.11065,-2.39385 -1.78972,-2.41596 -0.44228,-1.20313 -0.861,-2.46705 -1.20715,-3.86227 z"
         style="fill:#000000;fill-opacity:1;fill-rule:nonzero;stroke:none" />
    </g>
    <g
       id="g3245"
       transform="matrix(0.29808803,0,0,0.29808803,165.52853,400.31686)">
      <path
         style="fill:#000000;stroke:#000000;stroke-width:1px;stroke-linecap:butt;stroke-linejoin:miter;stroke-opacity:1"
         d="m 196.97975,619.19162 c -11.60137,-9.89292 4.04618,-44.25157 20.45559,-40.91118 19.89949,4.05086 33.09845,29.71536 21.97081,40.15357 -6.32282,5.93108 -16.55934,-14.08766 -21.97165,-13.9158 -5.26442,0.16717 -14.06982,20.11808 -20.45475,14.67341 z"
         id="path3247"
         inkscape:connector-curvature="0"
         transform="translate(0,427.36221)"
         sodipodi:nodetypes="asasa" />
      <path
         style="fill:#000000;fill-opacity:1;fill-rule:nonzero;stroke:none"
         d="m 186.97901,992.08878 c 0.34461,1.46158 0.54809,2.79548 0.6942,4.08778 -0.45958,0.46334 -0.59414,1.59549 -0.28483,2.83575 0.15847,0.63544 0.40593,1.19569 0.69561,1.61549 0.0107,0.1159 0.0268,0.2318 0.0381,0.3482 -0.81436,1.0739 -1.0868,2.9459 -0.59603,4.9138 0.6902,2.7675 2.63304,4.6613 4.34139,4.2353 1.70834,-0.4261 2.53435,-3.0104 1.84416,-5.778 -0.58868,-2.3604 -2.09862,-4.084 -3.58741,-4.2769 0.0505,-0.49681 0.005,-1.0881 -0.14829,-1.7032 -0.34367,-1.37806 -1.11065,-2.39385 -1.78972,-2.41596 -0.44228,-1.20313 -0.861,-2.46705 -1.20715,-3.86227 z"
         id="path3249"
         inkscape:connector-curvature="0" />
      <path
         inkscape:connector-curvature="0"
         id="path3251"
         d="m 197.69329,980.6602 c 0.34461,1.46158 0.54809,2.79548 0.6942,4.08778 -0.45958,0.46334 -0.59414,1.59549 -0.28483,2.83575 0.15847,0.63544 0.40593,1.19569 0.69561,1.61549 0.0107,0.1159 0.0268,0.2318 0.0381,0.3482 -0.81436,1.0739 -1.0868,2.9459 -0.59603,4.9138 0.6902,2.7675 2.63304,4.6613 4.34139,4.2353 1.70834,-0.4261 2.53435,-3.0104 1.84416,-5.778 -0.58868,-2.3604 -2.09862,-4.084 -3.58741,-4.2769 0.0505,-0.49681 0.005,-1.0881 -0.14829,-1.7032 -0.34367,-1.37806 -1.11065,-2.39385 -1.78972,-2.41596 -0.44228,-1.20313 -0.861,-2.46705 -1.20715,-3.86227 z"
         style="fill:#000000;fill-opacity:1;fill-rule:nonzero;stroke:none" />
      <path
         style="fill:#000000;fill-opacity:1;fill-rule:nonzero;stroke:none"
         d="m 211.979,979.4102 c 0.34461,1.46158 0.54809,2.79548 0.6942,4.08778 -0.45958,0.46334 -0.59414,1.59549 -0.28483,2.83575 0.15847,0.63544 0.40593,1.19569 0.69561,1.61549 0.0107,0.1159 0.0268,0.2318 0.0381,0.3482 -0.81436,1.0739 -1.0868,2.9459 -0.59603,4.9138 0.6902,2.7675 2.63304,4.6613 4.34139,4.2353 1.70834,-0.4261 2.53435,-3.0104 1.84416,-5.778 -0.58868,-2.3604 -2.09862,-4.084 -3.58741,-4.2769 0.0505,-0.49681 0.005,-1.0881 -0.14829,-1.7032 -0.34367,-1.37806 -1.11065,-2.39385 -1.78972,-2.41596 -0.44228,-1.20313 -0.861,-2.46705 -1.20715,-3.86227 z"
         id="path3253"
         inkscape:connector-curvature="0" />
      <path
         inkscape:connector-curvature="0"
         id="path3255"
         d="m 225.90757,985.83877 c 0.34461,1.46158 0.54809,2.79548 0.6942,4.08778 -0.45958,0.46334 -0.59414,1.59549 -0.28483,2.83575 0.15847,0.63544 0.40593,1.19569 0.69561,1.61549 0.0107,0.1159 0.0268,0.2318 0.0381,0.3482 -0.81436,1.0739 -1.0868,2.9459 -0.59603,4.9138 0.6902,2.76751 2.63304,4.66131 4.34139,4.23531 1.70834,-0.4261 2.53435,-3.0104 1.84416,-5.77801 -0.58868,-2.3604 -2.09862,-4.084 -3.58741,-4.2769 0.0505,-0.49681 0.005,-1.0881 -0.14829,-1.7032 -0.34367,-1.37806 -1.11065,-2.39385 -1.78972,-2.41596 -0.44228,-1.20313 -0.861,-2.46705 -1.20715,-3.86227 z"
         style="fill:#000000;fill-opacity:1;fill-rule:nonzero;stroke:none" />
    </g>
    <g
       transform="matrix(0.29808803,0,0,0.29808803,68.385672,436.03115)"
       id="g3257">
      <path
         sodipodi:nodetypes="asasa"
         transform="translate(0,427.36221)"
         inkscape:connector-curvature="0"
         id="path3259"
         d="m 196.97975,619.19162 c -11.60137,-9.89292 4.04618,-44.25157 20.45559,-40.91118 19.89949,4.05086 33.09845,29.71536 21.97081,40.15357 -6.32282,5.93108 -16.55934,-14.08766 -21.97165,-13.9158 -5.26442,0.16717 -14.06982,20.11808 -20.45475,14.67341 z"
         style="fill:#000000;stroke:#000000;stroke-width:1px;stroke-linecap:butt;stroke-linejoin:miter;stroke-opacity:1" />
      <path
         inkscape:connector-curvature="0"
         id="path3261"
         d="m 186.97901,992.08878 c 0.34461,1.46158 0.54809,2.79548 0.6942,4.08778 -0.45958,0.46334 -0.59414,1.59549 -0.28483,2.83575 0.15847,0.63544 0.40593,1.19569 0.69561,1.61549 0.0107,0.1159 0.0268,0.2318 0.0381,0.3482 -0.81436,1.0739 -1.0868,2.9459 -0.59603,4.9138 0.6902,2.7675 2.63304,4.6613 4.34139,4.2353 1.70834,-0.4261 2.53435,-3.0104 1.84416,-5.778 -0.58868,-2.3604 -2.09862,-4.084 -3.58741,-4.2769 0.0505,-0.49681 0.005,-1.0881 -0.14829,-1.7032 -0.34367,-1.37806 -1.11065,-2.39385 -1.78972,-2.41596 -0.44228,-1.20313 -0.861,-2.46705 -1.20715,-3.86227 z"
         style="fill:#000000;fill-opacity:1;fill-rule:nonzero;stroke:none" />
      <path
         style="fill:#000000;fill-opacity:1;fill-rule:nonzero;stroke:none"
         d="m 197.69329,980.6602 c 0.34461,1.46158 0.54809,2.79548 0.6942,4.08778 -0.45958,0.46334 -0.59414,1.59549 -0.28483,2.83575 0.15847,0.63544 0.40593,1.19569 0.69561,1.61549 0.0107,0.1159 0.0268,0.2318 0.0381,0.3482 -0.81436,1.0739 -1.0868,2.9459 -0.59603,4.9138 0.6902,2.7675 2.63304,4.6613 4.34139,4.2353 1.70834,-0.4261 2.53435,-3.0104 1.84416,-5.778 -0.58868,-2.3604 -2.09862,-4.084 -3.58741,-4.2769 0.0505,-0.49681 0.005,-1.0881 -0.14829,-1.7032 -0.34367,-1.37806 -1.11065,-2.39385 -1.78972,-2.41596 -0.44228,-1.20313 -0.861,-2.46705 -1.20715,-3.86227 z"
         id="path3263"
         inkscape:connector-curvature="0" />
      <path
         inkscape:connector-curvature="0"
         id="path3265"
         d="m 211.979,979.4102 c 0.34461,1.46158 0.54809,2.79548 0.6942,4.08778 -0.45958,0.46334 -0.59414,1.59549 -0.28483,2.83575 0.15847,0.63544 0.40593,1.19569 0.69561,1.61549 0.0107,0.1159 0.0268,0.2318 0.0381,0.3482 -0.81436,1.0739 -1.0868,2.9459 -0.59603,4.9138 0.6902,2.7675 2.63304,4.6613 4.34139,4.2353 1.70834,-0.4261 2.53435,-3.0104 1.84416,-5.778 -0.58868,-2.3604 -2.09862,-4.084 -3.58741,-4.2769 0.0505,-0.49681 0.005,-1.0881 -0.14829,-1.7032 -0.34367,-1.37806 -1.11065,-2.39385 -1.78972,-2.41596 -0.44228,-1.20313 -0.861,-2.46705 -1.20715,-3.86227 z"
         style="fill:#000000;fill-opacity:1;fill-rule:nonzero;stroke:none" />
      <path
         style="fill:#000000;fill-opacity:1;fill-rule:nonzero;stroke:none"
         d="m 225.90757,985.83877 c 0.34461,1.46158 0.54809,2.79548 0.6942,4.08778 -0.45958,0.46334 -0.59414,1.59549 -0.28483,2.83575 0.15847,0.63544 0.40593,1.19569 0.69561,1.61549 0.0107,0.1159 0.0268,0.2318 0.0381,0.3482 -0.81436,1.0739 -1.0868,2.9459 -0.59603,4.9138 0.6902,2.76751 2.63304,4.66131 4.34139,4.23531 1.70834,-0.4261 2.53435,-3.0104 1.84416,-5.77801 -0.58868,-2.3604 -2.09862,-4.084 -3.58741,-4.2769 0.0505,-0.49681 0.005,-1.0881 -0.14829,-1.7032 -0.34367,-1.37806 -1.11065,-2.39385 -1.78972,-2.41596 -0.44228,-1.20313 -0.861,-2.46705 -1.20715,-3.86227 z"
         id="path3267"
         inkscape:connector-curvature="0" />
    </g>
    <g
       id="g3269"
       transform="matrix(-0.29808803,0,0,-0.29808803,273.27385,924.66205)">
      <path
         style="fill:#000000;stroke:#000000;stroke-width:1px;stroke-linecap:butt;stroke-linejoin:miter;stroke-opacity:1"
         d="m 196.97975,619.19162 c -11.60137,-9.89292 4.04618,-44.25157 20.45559,-40.91118 19.89949,4.05086 33.09845,29.71536 21.97081,40.15357 -6.32282,5.93108 -16.55934,-14.08766 -21.97165,-13.9158 -5.26442,0.16717 -14.06982,20.11808 -20.45475,14.67341 z"
         id="path3271"
         inkscape:connector-curvature="0"
         transform="translate(0,427.36221)"
         sodipodi:nodetypes="asasa" />
      <path
         style="fill:#000000;fill-opacity:1;fill-rule:nonzero;stroke:none"
         d="m 186.97901,992.08878 c 0.34461,1.46158 0.54809,2.79548 0.6942,4.08778 -0.45958,0.46334 -0.59414,1.59549 -0.28483,2.83575 0.15847,0.63544 0.40593,1.19569 0.69561,1.61549 0.0107,0.1159 0.0268,0.2318 0.0381,0.3482 -0.81436,1.0739 -1.0868,2.9459 -0.59603,4.9138 0.6902,2.7675 2.63304,4.6613 4.34139,4.2353 1.70834,-0.4261 2.53435,-3.0104 1.84416,-5.778 -0.58868,-2.3604 -2.09862,-4.084 -3.58741,-4.2769 0.0505,-0.49681 0.005,-1.0881 -0.14829,-1.7032 -0.34367,-1.37806 -1.11065,-2.39385 -1.78972,-2.41596 -0.44228,-1.20313 -0.861,-2.46705 -1.20715,-3.86227 z"
         id="path3273"
         inkscape:connector-curvature="0" />
      <path
         inkscape:connector-curvature="0"
         id="path3275"
         d="m 197.69329,980.6602 c 0.34461,1.46158 0.54809,2.79548 0.6942,4.08778 -0.45958,0.46334 -0.59414,1.59549 -0.28483,2.83575 0.15847,0.63544 0.40593,1.19569 0.69561,1.61549 0.0107,0.1159 0.0268,0.2318 0.0381,0.3482 -0.81436,1.0739 -1.0868,2.9459 -0.59603,4.9138 0.6902,2.7675 2.63304,4.6613 4.34139,4.2353 1.70834,-0.4261 2.53435,-3.0104 1.84416,-5.778 -0.58868,-2.3604 -2.09862,-4.084 -3.58741,-4.2769 0.0505,-0.49681 0.005,-1.0881 -0.14829,-1.7032 -0.34367,-1.37806 -1.11065,-2.39385 -1.78972,-2.41596 -0.44228,-1.20313 -0.861,-2.46705 -1.20715,-3.86227 z"
         style="fill:#000000;fill-opacity:1;fill-rule:nonzero;stroke:none" />
      <path
         style="fill:#000000;fill-opacity:1;fill-rule:nonzero;stroke:none"
         d="m 211.979,979.4102 c 0.34461,1.46158 0.54809,2.79548 0.6942,4.08778 -0.45958,0.46334 -0.59414,1.59549 -0.28483,2.83575 0.15847,0.63544 0.40593,1.19569 0.69561,1.61549 0.0107,0.1159 0.0268,0.2318 0.0381,0.3482 -0.81436,1.0739 -1.0868,2.9459 -0.59603,4.9138 0.6902,2.7675 2.63304,4.6613 4.34139,4.2353 1.70834,-0.4261 2.53435,-3.0104 1.84416,-5.778 -0.58868,-2.3604 -2.09862,-4.084 -3.58741,-4.2769 0.0505,-0.49681 0.005,-1.0881 -0.14829,-1.7032 -0.34367,-1.37806 -1.11065,-2.39385 -1.78972,-2.41596 -0.44228,-1.20313 -0.861,-2.46705 -1.20715,-3.86227 z"
         id="path3277"
         inkscape:connector-curvature="0" />
      <path
         inkscape:connector-curvature="0"
         id="path3279"
         d="m 225.90757,985.83877 c 0.34461,1.46158 0.54809,2.79548 0.6942,4.08778 -0.45958,0.46334 -0.59414,1.59549 -0.28483,2.83575 0.15847,0.63544 0.40593,1.19569 0.69561,1.61549 0.0107,0.1159 0.0268,0.2318 0.0381,0.3482 -0.81436,1.0739 -1.0868,2.9459 -0.59603,4.9138 0.6902,2.76751 2.63304,4.66131 4.34139,4.23531 1.70834,-0.4261 2.53435,-3.0104 1.84416,-5.77801 -0.58868,-2.3604 -2.09862,-4.084 -3.58741,-4.2769 0.0505,-0.49681 0.005,-1.0881 -0.14829,-1.7032 -0.34367,-1.37806 -1.11065,-2.39385 -1.78972,-2.41596 -0.44228,-1.20313 -0.861,-2.46705 -1.20715,-3.86227 z"
         style="fill:#000000;fill-opacity:1;fill-rule:nonzero;stroke:none" />
    </g>
    <g
       transform="matrix(0.29808803,0,0,0.29808803,-5.9000528,378.174)"
       id="g3281">
      <path
         sodipodi:nodetypes="asasa"
         transform="translate(0,427.36221)"
         inkscape:connector-curvature="0"
         id="path3283"
         d="m 196.97975,619.19162 c -11.60137,-9.89292 4.04618,-44.25157 20.45559,-40.91118 19.89949,4.05086 33.09845,29.71536 21.97081,40.15357 -6.32282,5.93108 -16.55934,-14.08766 -21.97165,-13.9158 -5.26442,0.16717 -14.06982,20.11808 -20.45475,14.67341 z"
         style="fill:#000000;stroke:#000000;stroke-width:1px;stroke-linecap:butt;stroke-linejoin:miter;stroke-opacity:1" />
      <path
         inkscape:connector-curvature="0"
         id="path3285"
         d="m 186.97901,992.08878 c 0.34461,1.46158 0.54809,2.79548 0.6942,4.08778 -0.45958,0.46334 -0.59414,1.59549 -0.28483,2.83575 0.15847,0.63544 0.40593,1.19569 0.69561,1.61549 0.0107,0.1159 0.0268,0.2318 0.0381,0.3482 -0.81436,1.0739 -1.0868,2.9459 -0.59603,4.9138 0.6902,2.7675 2.63304,4.6613 4.34139,4.2353 1.70834,-0.4261 2.53435,-3.0104 1.84416,-5.778 -0.58868,-2.3604 -2.09862,-4.084 -3.58741,-4.2769 0.0505,-0.49681 0.005,-1.0881 -0.14829,-1.7032 -0.34367,-1.37806 -1.11065,-2.39385 -1.78972,-2.41596 -0.44228,-1.20313 -0.861,-2.46705 -1.20715,-3.86227 z"
         style="fill:#000000;fill-opacity:1;fill-rule:nonzero;stroke:none" />
      <path
         style="fill:#000000;fill-opacity:1;fill-rule:nonzero;stroke:none"
         d="m 197.69329,980.6602 c 0.34461,1.46158 0.54809,2.79548 0.6942,4.08778 -0.45958,0.46334 -0.59414,1.59549 -0.28483,2.83575 0.15847,0.63544 0.40593,1.19569 0.69561,1.61549 0.0107,0.1159 0.0268,0.2318 0.0381,0.3482 -0.81436,1.0739 -1.0868,2.9459 -0.59603,4.9138 0.6902,2.7675 2.63304,4.6613 4.34139,4.2353 1.70834,-0.4261 2.53435,-3.0104 1.84416,-5.778 -0.58868,-2.3604 -2.09862,-4.084 -3.58741,-4.2769 0.0505,-0.49681 0.005,-1.0881 -0.14829,-1.7032 -0.34367,-1.37806 -1.11065,-2.39385 -1.78972,-2.41596 -0.44228,-1.20313 -0.861,-2.46705 -1.20715,-3.86227 z"
         id="path3287"
         inkscape:connector-curvature="0" />
      <path
         inkscape:connector-curvature="0"
         id="path3289"
         d="m 211.979,979.4102 c 0.34461,1.46158 0.54809,2.79548 0.6942,4.08778 -0.45958,0.46334 -0.59414,1.59549 -0.28483,2.83575 0.15847,0.63544 0.40593,1.19569 0.69561,1.61549 0.0107,0.1159 0.0268,0.2318 0.0381,0.3482 -0.81436,1.0739 -1.0868,2.9459 -0.59603,4.9138 0.6902,2.7675 2.63304,4.6613 4.34139,4.2353 1.70834,-0.4261 2.53435,-3.0104 1.84416,-5.778 -0.58868,-2.3604 -2.09862,-4.084 -3.58741,-4.2769 0.0505,-0.49681 0.005,-1.0881 -0.14829,-1.7032 -0.34367,-1.37806 -1.11065,-2.39385 -1.78972,-2.41596 -0.44228,-1.20313 -0.861,-2.46705 -1.20715,-3.86227 z"
         style="fill:#000000;fill-opacity:1;fill-rule:nonzero;stroke:none" />
      <path
         style="fill:#000000;fill-opacity:1;fill-rule:nonzero;stroke:none"
         d="m 225.90757,985.83877 c 0.34461,1.46158 0.54809,2.79548 0.6942,4.08778 -0.45958,0.46334 -0.59414,1.59549 -0.28483,2.83575 0.15847,0.63544 0.40593,1.19569 0.69561,1.61549 0.0107,0.1159 0.0268,0.2318 0.0381,0.3482 -0.81436,1.0739 -1.0868,2.9459 -0.59603,4.9138 0.6902,2.76751 2.63304,4.66131 4.34139,4.23531 1.70834,-0.4261 2.53435,-3.0104 1.84416,-5.77801 -0.58868,-2.3604 -2.09862,-4.084 -3.58741,-4.2769 0.0505,-0.49681 0.005,-1.0881 -0.14829,-1.7032 -0.34367,-1.37806 -1.11065,-2.39385 -1.78972,-2.41596 -0.44228,-1.20313 -0.861,-2.46705 -1.20715,-3.86227 z"
         id="path3291"
         inkscape:connector-curvature="0" />
    </g>
    <g
       id="g3293"
       transform="matrix(0.29808803,0,0,0.29808803,219.81423,318.174)">
      <path
         style="fill:#000000;stroke:#000000;stroke-width:1px;stroke-linecap:butt;stroke-linejoin:miter;stroke-opacity:1"
         d="m 196.97975,619.19162 c -11.60137,-9.89292 4.04618,-44.25157 20.45559,-40.91118 19.89949,4.05086 33.09845,29.71536 21.97081,40.15357 -6.32282,5.93108 -16.55934,-14.08766 -21.97165,-13.9158 -5.26442,0.16717 -14.06982,20.11808 -20.45475,14.67341 z"
         id="path3295"
         inkscape:connector-curvature="0"
         transform="translate(0,427.36221)"
         sodipodi:nodetypes="asasa" />
      <path
         style="fill:#000000;fill-opacity:1;fill-rule:nonzero;stroke:none"
         d="m 186.97901,992.08878 c 0.34461,1.46158 0.54809,2.79548 0.6942,4.08778 -0.45958,0.46334 -0.59414,1.59549 -0.28483,2.83575 0.15847,0.63544 0.40593,1.19569 0.69561,1.61549 0.0107,0.1159 0.0268,0.2318 0.0381,0.3482 -0.81436,1.0739 -1.0868,2.9459 -0.59603,4.9138 0.6902,2.7675 2.63304,4.6613 4.34139,4.2353 1.70834,-0.4261 2.53435,-3.0104 1.84416,-5.778 -0.58868,-2.3604 -2.09862,-4.084 -3.58741,-4.2769 0.0505,-0.49681 0.005,-1.0881 -0.14829,-1.7032 -0.34367,-1.37806 -1.11065,-2.39385 -1.78972,-2.41596 -0.44228,-1.20313 -0.861,-2.46705 -1.20715,-3.86227 z"
         id="path3297"
         inkscape:connector-curvature="0" />
      <path
         inkscape:connector-curvature="0"
         id="path3299"
         d="m 197.69329,980.6602 c 0.34461,1.46158 0.54809,2.79548 0.6942,4.08778 -0.45958,0.46334 -0.59414,1.59549 -0.28483,2.83575 0.15847,0.63544 0.40593,1.19569 0.69561,1.61549 0.0107,0.1159 0.0268,0.2318 0.0381,0.3482 -0.81436,1.0739 -1.0868,2.9459 -0.59603,4.9138 0.6902,2.7675 2.63304,4.6613 4.34139,4.2353 1.70834,-0.4261 2.53435,-3.0104 1.84416,-5.778 -0.58868,-2.3604 -2.09862,-4.084 -3.58741,-4.2769 0.0505,-0.49681 0.005,-1.0881 -0.14829,-1.7032 -0.34367,-1.37806 -1.11065,-2.39385 -1.78972,-2.41596 -0.44228,-1.20313 -0.861,-2.46705 -1.20715,-3.86227 z"
         style="fill:#000000;fill-opacity:1;fill-rule:nonzero;stroke:none" />
      <path
         style="fill:#000000;fill-opacity:1;fill-rule:nonzero;stroke:none"
         d="m 211.979,979.4102 c 0.34461,1.46158 0.54809,2.79548 0.6942,4.08778 -0.45958,0.46334 -0.59414,1.59549 -0.28483,2.83575 0.15847,0.63544 0.40593,1.19569 0.69561,1.61549 0.0107,0.1159 0.0268,0.2318 0.0381,0.3482 -0.81436,1.0739 -1.0868,2.9459 -0.59603,4.9138 0.6902,2.7675 2.63304,4.6613 4.34139,4.2353 1.70834,-0.4261 2.53435,-3.0104 1.84416,-5.778 -0.58868,-2.3604 -2.09862,-4.084 -3.58741,-4.2769 0.0505,-0.49681 0.005,-1.0881 -0.14829,-1.7032 -0.34367,-1.37806 -1.11065,-2.39385 -1.78972,-2.41596 -0.44228,-1.20313 -0.861,-2.46705 -1.20715,-3.86227 z"
         id="path3301"
         inkscape:connector-curvature="0" />
      <path
         inkscape:connector-curvature="0"
         id="path3303"
         d="m 225.90757,985.83877 c 0.34461,1.46158 0.54809,2.79548 0.6942,4.08778 -0.45958,0.46334 -0.59414,1.59549 -0.28483,2.83575 0.15847,0.63544 0.40593,1.19569 0.69561,1.61549 0.0107,0.1159 0.0268,0.2318 0.0381,0.3482 -0.81436,1.0739 -1.0868,2.9459 -0.59603,4.9138 0.6902,2.76751 2.63304,4.66131 4.34139,4.23531 1.70834,-0.4261 2.53435,-3.0104 1.84416,-5.77801 -0.58868,-2.3604 -2.09862,-4.084 -3.58741,-4.2769 0.0505,-0.49681 0.005,-1.0881 -0.14829,-1.7032 -0.34367,-1.37806 -1.11065,-2.39385 -1.78972,-2.41596 -0.44228,-1.20313 -0.861,-2.46705 -1.20715,-3.86227 z"
         style="fill:#000000;fill-opacity:1;fill-rule:nonzero;stroke:none" />
    </g>
  </g>
</svg>
