<?xml version="1.0" encoding="UTF-8" standalone="no"?>
<!-- Created with Inkscape (http://www.inkscape.org/) -->

<svg
   xmlns:dc="http://purl.org/dc/elements/1.1/"
   xmlns:cc="http://creativecommons.org/ns#"
   xmlns:rdf="http://www.w3.org/1999/02/22-rdf-syntax-ns#"
   xmlns:svg="http://www.w3.org/2000/svg"
   xmlns="http://www.w3.org/2000/svg"
   xmlns:sodipodi="http://sodipodi.sourceforge.net/DTD/sodipodi-0.dtd"
   xmlns:inkscape="http://www.inkscape.org/namespaces/inkscape"
   width="351.01147"
   height="361.375"
   id="svg2"
   version="1.1"
   inkscape:version="0.48.4 r9939"
   sodipodi:docname="sun.svg">
  <defs
     id="defs4" />
  <sodipodi:namedview
     id="base"
     pagecolor="#ffffff"
     bordercolor="#666666"
     borderopacity="1.0"
     inkscape:pageopacity="0.0"
     inkscape:pageshadow="2"
     inkscape:zoom="1.4"
     inkscape:cx="122.78141"
     inkscape:cy="143.42196"
     inkscape:document-units="px"
     inkscape:current-layer="g3186"
     showgrid="false"
     inkscape:window-width="1855"
     inkscape:window-height="1056"
     inkscape:window-x="65"
     inkscape:window-y="24"
     inkscape:window-maximized="1"
     fit-margin-top="0"
     fit-margin-left="0"
     fit-margin-right="0"
     fit-margin-bottom="0">
    <inkscape:grid
       type="xygrid"
       id="grid3119"
       empspacing="5"
       visible="true"
       enabled="true"
       snapvisiblegridlinesonly="true"
       originx="-0.019774521px"
       originy="-688.1479px" />
  </sodipodi:namedview>
  <metadata
     id="metadata7">
    <rdf:RDF>
      <cc:Work
         rdf:about="">
        <dc:format>image/svg+xml</dc:format>
        <dc:type
           rdf:resource="http://purl.org/dc/dcmitype/StillImage" />
        <dc:title />
      </cc:Work>
    </rdf:RDF>
  </metadata>
  <g
     inkscape:label="Layer 1"
     inkscape:groupmode="layer"
     id="layer1"
     transform="translate(-0.01977452,-2.8392857)">
    <g
       id="g3186"
       transform="translate(-3.0078961e-8,0.71428568)">
      <path
         sodipodi:nodetypes="ccccccccccccc"
         inkscape:connector-curvature="0"
         d="M 303.22992,304.87781 C 197.1778,238.22426 243.14565,342.72532 220,362.36218 c -31.89651,-102.05906 -65.03043,-38.06748 -100,0 -5.26254,-11.32284 48.73617,-113.47994 -72.515633,-57.48437 60.330113,-86.97437 -14.183276,-67.90329 -46.80468998,-81.06809 -1.32789602,-21.97668 122.22315298,-0.33956 0,-93.60937 C 73.41073,144.73564 93.575326,118.7393 47.484367,49.132261 97.966923,88.040369 141.8564,111.62927 128.55246,2.3275712 c 20.28389,62.8463198 67.79033,92.7871058 93.60937,0 11.45069,91.0050478 20.54298,105.8535188 81.06809,46.8046898 -40.55372,70.158799 -45.30797,95.595989 46.80469,81.068089 -85.81763,48.87132 -69.6165,77.06833 0,93.60937 -15.63961,27.05227 -126.09408,-37.45646 -46.80469,81.06809 z"
         style="fill:#d45500;stroke:#ffcc00;stroke-width:5;stroke-miterlimit:4;stroke-dasharray:none;stroke-linejoin:round;stroke-linecap:butt"
         id="path3188" />
      <g
         inkscape:transform-center-y="4.5823858"
         transform="matrix(0.86341722,0,0,0.86341722,-126.41728,-250.93129)"
         id="g3128">
        <g
           id="g3124">
          <g
             id="g3121">
            <path
               sodipodi:type="arc"
               style="fill:#ffcc00;stroke:#ffcc00"
               id="path3111"
               sodipodi:cx="395.71429"
               sodipodi:cy="699.50507"
               sodipodi:rx="93.571426"
               sodipodi:ry="93.571426"
               d="m 489.28572,699.50507 c 0,51.67807 -41.89335,93.57142 -93.57143,93.57142 -51.67807,0 -93.57142,-41.89335 -93.57142,-93.57142 0,-51.67808 41.89335,-93.57143 93.57142,-93.57143 51.67808,0 93.57143,41.89335 93.57143,93.57143 z"
               transform="matrix(1.3868834,0,0,1.3692012,-200.53882,-457.58214)" />
          </g>
        </g>
      </g>
    </g>
  </g>
</svg>
